<?xml version="1.0" encoding="UTF-8" standalone="no"?>
<!DOCTYPE svg PUBLIC "-//W3C//DTD SVG 1.1//EN"
 "http://www.w3.org/Graphics/SVG/1.1/DTD/svg11.dtd">
<!-- Generated by graphviz version 2.38.0 (20140413.2041)
 -->
<!-- Title: %3 Pages: 1 -->
<svg width="1244pt" height="582pt"
 viewBox="0.00 0.00 1244.22 582.00" xmlns="http://www.w3.org/2000/svg" xmlns:xlink="http://www.w3.org/1999/xlink">
<g id="graph0" class="graph" transform="scale(1 1) rotate(0) translate(4 578)">
<title>%3</title>
<polygon fill="white" stroke="none" points="-4,4 -4,-578 1240.22,-578 1240.22,4 -4,4"/>
<!-- 20 -->
<g id="node1" class="node"><title>20</title>
<ellipse fill="none" stroke="green" cx="706.615" cy="-531" rx="73.7559" ry="43"/>
<text text-anchor="middle" x="706.615" y="-546" font-family="Times,serif" font-size="10.00">ID: 20</text>
<text text-anchor="middle" x="706.615" y="-534" font-family="Times,serif" font-size="10.00">Number of features: 8</text>
<text text-anchor="middle" x="706.615" y="-522" font-family="Times,serif" font-size="10.00">Cumulative Appearance: 1080</text>
<text text-anchor="middle" x="706.615" y="-510" font-family="Times,serif" font-size="10.00"> Appearance: 47</text>
</g>
<!-- 15 -->
<g id="node2" class="node"><title>15</title>
<ellipse fill="none" stroke="green" cx="388.615" cy="-409" rx="70.73" ry="43"/>
<text text-anchor="middle" x="388.615" y="-424" font-family="Times,serif" font-size="10.00">ID: 15</text>
<text text-anchor="middle" x="388.615" y="-412" font-family="Times,serif" font-size="10.00">Number of features: 9</text>
<text text-anchor="middle" x="388.615" y="-400" font-family="Times,serif" font-size="10.00">Cumulative Appearance: 626</text>
<text text-anchor="middle" x="388.615" y="-388" font-family="Times,serif" font-size="10.00"> Appearance: 54</text>
</g>
<!-- 20&#45;&gt;15 -->
<g id="edge33" class="edge"><title>20&#45;&gt;15</title>
<path fill="none" stroke="black" d="M640.574,-511.801C591.948,-497.599 524.651,-476.253 467.615,-452 461.468,-449.386 455.158,-446.466 448.912,-443.415"/>
<polygon fill="black" stroke="black" points="450.342,-440.217 439.833,-438.873 447.21,-446.478 450.342,-440.217"/>
</g>
<!-- 16 -->
<g id="node3" class="node"><title>16</title>
<ellipse fill="none" stroke="green" cx="706.615" cy="-409" rx="70.73" ry="43"/>
<text text-anchor="middle" x="706.615" y="-424" font-family="Times,serif" font-size="10.00">ID: 16</text>
<text text-anchor="middle" x="706.615" y="-412" font-family="Times,serif" font-size="10.00">Number of features: 9</text>
<text text-anchor="middle" x="706.615" y="-400" font-family="Times,serif" font-size="10.00">Cumulative Appearance: 577</text>
<text text-anchor="middle" x="706.615" y="-388" font-family="Times,serif" font-size="10.00"> Appearance: 48</text>
</g>
<!-- 20&#45;&gt;16 -->
<g id="edge34" class="edge"><title>20&#45;&gt;16</title>
<path fill="none" stroke="black" d="M706.615,-487.692C706.615,-479.537 706.615,-470.903 706.615,-462.47"/>
<polygon fill="black" stroke="black" points="710.115,-462.33 706.615,-452.33 703.115,-462.33 710.115,-462.33"/>
</g>
<!-- 17 -->
<g id="node4" class="node"><title>17</title>
<ellipse fill="none" stroke="green" cx="865.615" cy="-409" rx="70.73" ry="43"/>
<text text-anchor="middle" x="865.615" y="-424" font-family="Times,serif" font-size="10.00">ID: 17</text>
<text text-anchor="middle" x="865.615" y="-412" font-family="Times,serif" font-size="10.00">Number of features: 9</text>
<text text-anchor="middle" x="865.615" y="-400" font-family="Times,serif" font-size="10.00">Cumulative Appearance: 279</text>
<text text-anchor="middle" x="865.615" y="-388" font-family="Times,serif" font-size="10.00"> Appearance: 47</text>
</g>
<!-- 20&#45;&gt;17 -->
<g id="edge35" class="edge"><title>20&#45;&gt;17</title>
<path fill="none" stroke="black" d="M750.905,-496.573C770.369,-481.884 793.361,-464.532 813.63,-449.234"/>
<polygon fill="black" stroke="black" points="815.964,-451.858 821.837,-443.04 811.747,-446.27 815.964,-451.858"/>
</g>
<!-- 18 -->
<g id="node5" class="node"><title>18</title>
<ellipse fill="none" stroke="green" cx="547.615" cy="-409" rx="70.73" ry="43"/>
<text text-anchor="middle" x="547.615" y="-424" font-family="Times,serif" font-size="10.00">ID: 18</text>
<text text-anchor="middle" x="547.615" y="-412" font-family="Times,serif" font-size="10.00">Number of features: 9</text>
<text text-anchor="middle" x="547.615" y="-400" font-family="Times,serif" font-size="10.00">Cumulative Appearance: 419</text>
<text text-anchor="middle" x="547.615" y="-388" font-family="Times,serif" font-size="10.00"> Appearance: 46</text>
</g>
<!-- 20&#45;&gt;18 -->
<g id="edge36" class="edge"><title>20&#45;&gt;18</title>
<path fill="none" stroke="black" d="M662.325,-496.573C642.861,-481.884 619.869,-464.532 599.599,-449.234"/>
<polygon fill="black" stroke="black" points="601.483,-446.27 591.393,-443.04 597.266,-451.858 601.483,-446.27"/>
</g>
<!-- 19 -->
<g id="node6" class="node"><title>19</title>
<ellipse fill="none" stroke="green" cx="1094.61" cy="-409" rx="67.704" ry="43"/>
<text text-anchor="middle" x="1094.61" y="-424" font-family="Times,serif" font-size="10.00">ID: 19</text>
<text text-anchor="middle" x="1094.61" y="-412" font-family="Times,serif" font-size="10.00">Number of features: 9</text>
<text text-anchor="middle" x="1094.61" y="-400" font-family="Times,serif" font-size="10.00">Cumulative Appearance: 84</text>
<text text-anchor="middle" x="1094.61" y="-388" font-family="Times,serif" font-size="10.00"> Appearance: 35</text>
</g>
<!-- 20&#45;&gt;19 -->
<g id="edge37" class="edge"><title>20&#45;&gt;19</title>
<path fill="none" stroke="black" d="M771.121,-510.05C841.095,-488.408 952.435,-453.973 1024.52,-431.678"/>
<polygon fill="black" stroke="black" points="1025.91,-434.914 1034.43,-428.615 1023.84,-428.226 1025.91,-434.914"/>
</g>
<!-- 7 -->
<g id="node7" class="node"><title>7</title>
<ellipse fill="none" stroke="green" cx="388.615" cy="-287" rx="70.73" ry="43"/>
<text text-anchor="middle" x="388.615" y="-302" font-family="Times,serif" font-size="10.00">ID: 7</text>
<text text-anchor="middle" x="388.615" y="-290" font-family="Times,serif" font-size="10.00">Number of features: 10</text>
<text text-anchor="middle" x="388.615" y="-278" font-family="Times,serif" font-size="10.00">Cumulative Appearance: 340</text>
<text text-anchor="middle" x="388.615" y="-266" font-family="Times,serif" font-size="10.00"> Appearance: 76</text>
</g>
<!-- 15&#45;&gt;7 -->
<g id="edge18" class="edge"><title>15&#45;&gt;7</title>
<path fill="none" stroke="black" d="M388.615,-365.692C388.615,-357.537 388.615,-348.903 388.615,-340.47"/>
<polygon fill="black" stroke="black" points="392.115,-340.33 388.615,-330.33 385.115,-340.33 392.115,-340.33"/>
</g>
<!-- 8 -->
<g id="node8" class="node"><title>8</title>
<ellipse fill="none" stroke="green" cx="70.6149" cy="-287" rx="70.73" ry="43"/>
<text text-anchor="middle" x="70.6149" y="-302" font-family="Times,serif" font-size="10.00">ID: 8</text>
<text text-anchor="middle" x="70.6149" y="-290" font-family="Times,serif" font-size="10.00">Number of features: 10</text>
<text text-anchor="middle" x="70.6149" y="-278" font-family="Times,serif" font-size="10.00">Cumulative Appearance: 296</text>
<text text-anchor="middle" x="70.6149" y="-266" font-family="Times,serif" font-size="10.00"> Appearance: 69</text>
</g>
<!-- 15&#45;&gt;8 -->
<g id="edge19" class="edge"><title>15&#45;&gt;8</title>
<path fill="none" stroke="black" d="M324.871,-390.471C276.083,-376.275 207.555,-354.637 149.615,-330 143.468,-327.386 137.158,-324.466 130.912,-321.415"/>
<polygon fill="black" stroke="black" points="132.342,-318.217 121.833,-316.873 129.21,-324.478 132.342,-318.217"/>
</g>
<!-- 11 -->
<g id="node11" class="node"><title>11</title>
<ellipse fill="none" stroke="green" cx="229.615" cy="-287" rx="70.73" ry="43"/>
<text text-anchor="middle" x="229.615" y="-302" font-family="Times,serif" font-size="10.00">ID: 11</text>
<text text-anchor="middle" x="229.615" y="-290" font-family="Times,serif" font-size="10.00">Number of features: 10</text>
<text text-anchor="middle" x="229.615" y="-278" font-family="Times,serif" font-size="10.00">Cumulative Appearance: 249</text>
<text text-anchor="middle" x="229.615" y="-266" font-family="Times,serif" font-size="10.00"> Appearance: 45</text>
</g>
<!-- 15&#45;&gt;11 -->
<g id="edge20" class="edge"><title>15&#45;&gt;11</title>
<path fill="none" stroke="black" d="M344.747,-374.892C325.109,-360.071 301.814,-342.49 281.332,-327.032"/>
<polygon fill="black" stroke="black" points="283.43,-324.231 273.34,-321 279.214,-329.818 283.43,-324.231"/>
</g>
<!-- 14 -->
<g id="node14" class="node"><title>14</title>
<ellipse fill="none" stroke="green" cx="703.615" cy="-287" rx="67.704" ry="43"/>
<text text-anchor="middle" x="703.615" y="-302" font-family="Times,serif" font-size="10.00">ID: 14</text>
<text text-anchor="middle" x="703.615" y="-290" font-family="Times,serif" font-size="10.00">Number of features: 10</text>
<text text-anchor="middle" x="703.615" y="-278" font-family="Times,serif" font-size="10.00">Cumulative Appearance: 93</text>
<text text-anchor="middle" x="703.615" y="-266" font-family="Times,serif" font-size="10.00"> Appearance: 41</text>
</g>
<!-- 15&#45;&gt;14 -->
<g id="edge21" class="edge"><title>15&#45;&gt;14</title>
<path fill="none" stroke="black" d="M439.113,-378.608C448.395,-373.944 458.148,-369.509 467.615,-366 535.959,-340.666 559.478,-355.887 627.615,-330 633.626,-327.716 639.744,-325.027 645.767,-322.132"/>
<polygon fill="black" stroke="black" points="647.752,-325.051 655.123,-317.44 644.615,-318.794 647.752,-325.051"/>
</g>
<!-- 16&#45;&gt;7 -->
<g id="edge22" class="edge"><title>16&#45;&gt;7</title>
<path fill="none" stroke="black" d="M656.117,-378.608C646.834,-373.944 637.082,-369.509 627.615,-366 559.27,-340.666 535.959,-355.334 467.615,-330 461.254,-327.642 454.765,-324.867 448.375,-321.884"/>
<polygon fill="black" stroke="black" points="449.637,-318.607 439.113,-317.392 446.583,-324.905 449.637,-318.607"/>
</g>
<!-- 9 -->
<g id="node9" class="node"><title>9</title>
<ellipse fill="none" stroke="green" cx="1012.61" cy="-287" rx="70.73" ry="43"/>
<text text-anchor="middle" x="1012.61" y="-302" font-family="Times,serif" font-size="10.00">ID: 9</text>
<text text-anchor="middle" x="1012.61" y="-290" font-family="Times,serif" font-size="10.00">Number of features: 10</text>
<text text-anchor="middle" x="1012.61" y="-278" font-family="Times,serif" font-size="10.00">Cumulative Appearance: 149</text>
<text text-anchor="middle" x="1012.61" y="-266" font-family="Times,serif" font-size="10.00"> Appearance: 58</text>
</g>
<!-- 16&#45;&gt;9 -->
<g id="edge23" class="edge"><title>16&#45;&gt;9</title>
<path fill="none" stroke="black" d="M757.164,-378.745C766.441,-374.066 776.179,-369.591 785.615,-366 848.884,-341.923 870.346,-354.077 933.615,-330 939.955,-327.587 946.431,-324.776 952.812,-321.771"/>
<polygon fill="black" stroke="black" points="954.614,-324.786 962.066,-317.255 951.544,-318.495 954.614,-324.786"/>
</g>
<!-- 10 -->
<g id="node10" class="node"><title>10</title>
<ellipse fill="none" stroke="green" cx="1168.61" cy="-287" rx="67.704" ry="43"/>
<text text-anchor="middle" x="1168.61" y="-302" font-family="Times,serif" font-size="10.00">ID: 10</text>
<text text-anchor="middle" x="1168.61" y="-290" font-family="Times,serif" font-size="10.00">Number of features: 10</text>
<text text-anchor="middle" x="1168.61" y="-278" font-family="Times,serif" font-size="10.00">Cumulative Appearance: 49</text>
<text text-anchor="middle" x="1168.61" y="-266" font-family="Times,serif" font-size="10.00"> Appearance: 49</text>
</g>
<!-- 16&#45;&gt;10 -->
<g id="edge24" class="edge"><title>16&#45;&gt;10</title>
<path fill="none" stroke="black" d="M755.97,-378.197C765.535,-373.457 775.681,-369.102 785.615,-366 916.749,-325.049 961.817,-372.013 1092.61,-330 1099.08,-327.925 1105.61,-325.281 1112,-322.332"/>
<polygon fill="black" stroke="black" points="1113.78,-325.358 1121.23,-317.824 1110.71,-319.069 1113.78,-325.358"/>
</g>
<!-- 12 -->
<g id="node12" class="node"><title>12</title>
<ellipse fill="none" stroke="green" cx="547.615" cy="-287" rx="70.73" ry="43"/>
<text text-anchor="middle" x="547.615" y="-302" font-family="Times,serif" font-size="10.00">ID: 12</text>
<text text-anchor="middle" x="547.615" y="-290" font-family="Times,serif" font-size="10.00">Number of features: 10</text>
<text text-anchor="middle" x="547.615" y="-278" font-family="Times,serif" font-size="10.00">Cumulative Appearance: 209</text>
<text text-anchor="middle" x="547.615" y="-266" font-family="Times,serif" font-size="10.00"> Appearance: 43</text>
</g>
<!-- 16&#45;&gt;12 -->
<g id="edge25" class="edge"><title>16&#45;&gt;12</title>
<path fill="none" stroke="black" d="M662.747,-374.892C643.109,-360.071 619.814,-342.49 599.332,-327.032"/>
<polygon fill="black" stroke="black" points="601.43,-324.231 591.34,-321 597.214,-329.818 601.43,-324.231"/>
</g>
<!-- 17&#45;&gt;9 -->
<g id="edge26" class="edge"><title>17&#45;&gt;9</title>
<path fill="none" stroke="black" d="M907.346,-373.934C924.644,-359.813 944.849,-343.319 962.907,-328.578"/>
<polygon fill="black" stroke="black" points="965.501,-330.979 971.034,-321.944 961.074,-325.556 965.501,-330.979"/>
</g>
<!-- 13 -->
<g id="node13" class="node"><title>13</title>
<ellipse fill="none" stroke="green" cx="856.615" cy="-287" rx="67.704" ry="43"/>
<text text-anchor="middle" x="856.615" y="-302" font-family="Times,serif" font-size="10.00">ID: 13</text>
<text text-anchor="middle" x="856.615" y="-290" font-family="Times,serif" font-size="10.00">Number of features: 10</text>
<text text-anchor="middle" x="856.615" y="-278" font-family="Times,serif" font-size="10.00">Cumulative Appearance: 81</text>
<text text-anchor="middle" x="856.615" y="-266" font-family="Times,serif" font-size="10.00"> Appearance: 42</text>
</g>
<!-- 17&#45;&gt;13 -->
<g id="edge27" class="edge"><title>17&#45;&gt;13</title>
<path fill="none" stroke="black" d="M862.467,-366.03C861.84,-357.674 861.175,-348.805 860.527,-340.156"/>
<polygon fill="black" stroke="black" points="864.014,-339.86 859.776,-330.149 857.034,-340.383 864.014,-339.86"/>
</g>
<!-- 17&#45;&gt;14 -->
<g id="edge28" class="edge"><title>17&#45;&gt;14</title>
<path fill="none" stroke="black" d="M821.348,-375.209C800.92,-360.078 776.538,-342.017 755.274,-326.266"/>
<polygon fill="black" stroke="black" points="757.107,-323.268 746.988,-320.128 752.94,-328.893 757.107,-323.268"/>
</g>
<!-- 18&#45;&gt;11 -->
<g id="edge29" class="edge"><title>18&#45;&gt;11</title>
<path fill="none" stroke="black" d="M497.117,-378.608C487.834,-373.944 478.082,-369.509 468.615,-366 400.27,-340.666 376.959,-355.334 308.615,-330 302.254,-327.642 295.765,-324.867 289.375,-321.884"/>
<polygon fill="black" stroke="black" points="290.637,-318.607 280.113,-317.392 287.583,-324.905 290.637,-318.607"/>
</g>
<!-- 18&#45;&gt;12 -->
<g id="edge30" class="edge"><title>18&#45;&gt;12</title>
<path fill="none" stroke="black" d="M547.615,-365.692C547.615,-357.537 547.615,-348.903 547.615,-340.47"/>
<polygon fill="black" stroke="black" points="551.115,-340.33 547.615,-330.33 544.115,-340.33 551.115,-340.33"/>
</g>
<!-- 18&#45;&gt;13 -->
<g id="edge31" class="edge"><title>18&#45;&gt;13</title>
<path fill="none" stroke="black" d="M598.137,-378.674C607.417,-374.003 617.163,-369.549 626.615,-366 692.42,-341.295 715.012,-355.238 780.615,-330 786.617,-327.691 792.728,-324.986 798.747,-322.08"/>
<polygon fill="black" stroke="black" points="800.737,-324.996 808.098,-317.377 797.592,-318.743 800.737,-324.996"/>
</g>
<!-- 19&#45;&gt;10 -->
<g id="edge32" class="edge"><title>19&#45;&gt;10</title>
<path fill="none" stroke="black" d="M1118.85,-368.708C1125.3,-358.244 1132.34,-346.823 1139.04,-335.952"/>
<polygon fill="black" stroke="black" points="1142.06,-337.73 1144.33,-327.381 1136.1,-334.055 1142.06,-337.73"/>
</g>
<!-- 2 -->
<g id="node15" class="node"><title>2</title>
<ellipse fill="none" stroke="green" cx="229.615" cy="-165" rx="70.73" ry="43"/>
<text text-anchor="middle" x="229.615" y="-180" font-family="Times,serif" font-size="10.00">ID: 2</text>
<text text-anchor="middle" x="229.615" y="-168" font-family="Times,serif" font-size="10.00">Number of features: 11</text>
<text text-anchor="middle" x="229.615" y="-156" font-family="Times,serif" font-size="10.00">Cumulative Appearance: 150</text>
<text text-anchor="middle" x="229.615" y="-144" font-family="Times,serif" font-size="10.00"> Appearance: 83</text>
</g>
<!-- 7&#45;&gt;2 -->
<g id="edge5" class="edge"><title>7&#45;&gt;2</title>
<path fill="none" stroke="black" d="M344.747,-252.892C325.109,-238.071 301.814,-220.49 281.332,-205.032"/>
<polygon fill="black" stroke="black" points="283.43,-202.231 273.34,-199 279.214,-207.818 283.43,-202.231"/>
</g>
<!-- 4 -->
<g id="node17" class="node"><title>4</title>
<ellipse fill="none" stroke="green" cx="388.615" cy="-165" rx="70.73" ry="43"/>
<text text-anchor="middle" x="388.615" y="-180" font-family="Times,serif" font-size="10.00">ID: 4</text>
<text text-anchor="middle" x="388.615" y="-168" font-family="Times,serif" font-size="10.00">Number of features: 11</text>
<text text-anchor="middle" x="388.615" y="-156" font-family="Times,serif" font-size="10.00">Cumulative Appearance: 127</text>
<text text-anchor="middle" x="388.615" y="-144" font-family="Times,serif" font-size="10.00"> Appearance: 62</text>
</g>
<!-- 7&#45;&gt;4 -->
<g id="edge6" class="edge"><title>7&#45;&gt;4</title>
<path fill="none" stroke="black" d="M388.615,-243.692C388.615,-235.537 388.615,-226.903 388.615,-218.47"/>
<polygon fill="black" stroke="black" points="392.115,-218.33 388.615,-208.33 385.115,-218.33 392.115,-218.33"/>
</g>
<!-- 5 -->
<g id="node18" class="node"><title>5</title>
<ellipse fill="none" stroke="green" cx="703.615" cy="-165" rx="67.704" ry="43"/>
<text text-anchor="middle" x="703.615" y="-180" font-family="Times,serif" font-size="10.00">ID: 5</text>
<text text-anchor="middle" x="703.615" y="-168" font-family="Times,serif" font-size="10.00">Number of features: 11</text>
<text text-anchor="middle" x="703.615" y="-156" font-family="Times,serif" font-size="10.00">Cumulative Appearance: 52</text>
<text text-anchor="middle" x="703.615" y="-144" font-family="Times,serif" font-size="10.00"> Appearance: 52</text>
</g>
<!-- 7&#45;&gt;5 -->
<g id="edge7" class="edge"><title>7&#45;&gt;5</title>
<path fill="none" stroke="black" d="M439.845,-257.156C448.966,-252.486 458.474,-247.907 467.615,-244 521.515,-220.962 584.661,-200.411 632.065,-186.195"/>
<polygon fill="black" stroke="black" points="633.346,-189.465 641.933,-183.259 631.35,-182.756 633.346,-189.465"/>
</g>
<!-- 8&#45;&gt;2 -->
<g id="edge8" class="edge"><title>8&#45;&gt;2</title>
<path fill="none" stroke="black" d="M114.483,-252.892C134.121,-238.071 157.416,-220.49 177.897,-205.032"/>
<polygon fill="black" stroke="black" points="180.016,-207.818 185.89,-199 175.799,-202.231 180.016,-207.818"/>
</g>
<!-- 3 -->
<g id="node16" class="node"><title>3</title>
<ellipse fill="none" stroke="green" cx="70.6149" cy="-165" rx="70.73" ry="43"/>
<text text-anchor="middle" x="70.6149" y="-180" font-family="Times,serif" font-size="10.00">ID: 3</text>
<text text-anchor="middle" x="70.6149" y="-168" font-family="Times,serif" font-size="10.00">Number of features: 11</text>
<text text-anchor="middle" x="70.6149" y="-156" font-family="Times,serif" font-size="10.00">Cumulative Appearance: 142</text>
<text text-anchor="middle" x="70.6149" y="-144" font-family="Times,serif" font-size="10.00"> Appearance: 77</text>
</g>
<!-- 8&#45;&gt;3 -->
<g id="edge9" class="edge"><title>8&#45;&gt;3</title>
<path fill="none" stroke="black" d="M70.6149,-243.692C70.6149,-235.537 70.6149,-226.903 70.6149,-218.47"/>
<polygon fill="black" stroke="black" points="74.115,-218.33 70.6149,-208.33 67.115,-218.33 74.115,-218.33"/>
</g>
<!-- 9&#45;&gt;5 -->
<g id="edge10" class="edge"><title>9&#45;&gt;5</title>
<path fill="none" stroke="black" d="M962.093,-256.674C952.813,-252.003 943.067,-247.549 933.615,-244 867.81,-219.295 845.218,-233.238 779.615,-208 773.613,-205.691 767.501,-202.986 761.483,-200.08"/>
<polygon fill="black" stroke="black" points="762.638,-196.743 752.132,-195.377 759.493,-202.996 762.638,-196.743"/>
</g>
<!-- 6 -->
<g id="node19" class="node"><title>6</title>
<ellipse fill="none" stroke="green" cx="856.615" cy="-165" rx="67.704" ry="43"/>
<text text-anchor="middle" x="856.615" y="-180" font-family="Times,serif" font-size="10.00">ID: 6</text>
<text text-anchor="middle" x="856.615" y="-168" font-family="Times,serif" font-size="10.00">Number of features: 11</text>
<text text-anchor="middle" x="856.615" y="-156" font-family="Times,serif" font-size="10.00">Cumulative Appearance: 39</text>
<text text-anchor="middle" x="856.615" y="-144" font-family="Times,serif" font-size="10.00"> Appearance: 39</text>
</g>
<!-- 9&#45;&gt;6 -->
<g id="edge11" class="edge"><title>9&#45;&gt;6</title>
<path fill="none" stroke="black" d="M969.574,-252.892C950.234,-238.014 927.277,-220.356 907.127,-204.856"/>
<polygon fill="black" stroke="black" points="909.036,-201.908 898.975,-198.585 904.768,-207.456 909.036,-201.908"/>
</g>
<!-- 11&#45;&gt;3 -->
<g id="edge12" class="edge"><title>11&#45;&gt;3</title>
<path fill="none" stroke="black" d="M185.747,-252.892C166.109,-238.071 142.814,-220.49 122.332,-205.032"/>
<polygon fill="black" stroke="black" points="124.43,-202.231 114.34,-199 120.214,-207.818 124.43,-202.231"/>
</g>
<!-- 11&#45;&gt;4 -->
<g id="edge13" class="edge"><title>11&#45;&gt;4</title>
<path fill="none" stroke="black" d="M273.483,-252.892C293.121,-238.071 316.416,-220.49 336.897,-205.032"/>
<polygon fill="black" stroke="black" points="339.016,-207.818 344.89,-199 334.799,-202.231 339.016,-207.818"/>
</g>
<!-- 12&#45;&gt;4 -->
<g id="edge14" class="edge"><title>12&#45;&gt;4</title>
<path fill="none" stroke="black" d="M503.747,-252.892C484.109,-238.071 460.814,-220.49 440.332,-205.032"/>
<polygon fill="black" stroke="black" points="442.43,-202.231 432.34,-199 438.214,-207.818 442.43,-202.231"/>
</g>
<!-- 12&#45;&gt;6 -->
<g id="edge15" class="edge"><title>12&#45;&gt;6</title>
<path fill="none" stroke="black" d="M598.137,-256.674C607.417,-252.003 617.163,-247.549 626.615,-244 692.42,-219.295 715.012,-233.238 780.615,-208 786.617,-205.691 792.728,-202.986 798.747,-200.08"/>
<polygon fill="black" stroke="black" points="800.737,-202.996 808.098,-195.377 797.592,-196.743 800.737,-202.996"/>
</g>
<!-- 13&#45;&gt;6 -->
<g id="edge16" class="edge"><title>13&#45;&gt;6</title>
<path fill="none" stroke="black" d="M856.615,-243.692C856.615,-235.537 856.615,-226.903 856.615,-218.47"/>
<polygon fill="black" stroke="black" points="860.115,-218.33 856.615,-208.33 853.115,-218.33 860.115,-218.33"/>
</g>
<!-- 14&#45;&gt;5 -->
<g id="edge17" class="edge"><title>14&#45;&gt;5</title>
<path fill="none" stroke="black" d="M703.615,-243.692C703.615,-235.537 703.615,-226.903 703.615,-218.47"/>
<polygon fill="black" stroke="black" points="707.115,-218.33 703.615,-208.33 700.115,-218.33 707.115,-218.33"/>
</g>
<!-- 1 -->
<g id="node20" class="node"><title>1</title>
<ellipse fill="none" stroke="green" cx="154.615" cy="-43" rx="67.704" ry="43"/>
<text text-anchor="middle" x="154.615" y="-58" font-family="Times,serif" font-size="10.00">ID: 1</text>
<text text-anchor="middle" x="154.615" y="-46" font-family="Times,serif" font-size="10.00">Number of features: 12</text>
<text text-anchor="middle" x="154.615" y="-34" font-family="Times,serif" font-size="10.00">Cumulative Appearance: 65</text>
<text text-anchor="middle" x="154.615" y="-22" font-family="Times,serif" font-size="10.00"> Appearance: 65</text>
</g>
<!-- 2&#45;&gt;1 -->
<g id="edge2" class="edge"><title>2&#45;&gt;1</title>
<path fill="none" stroke="black" d="M204.849,-124.375C198.318,-113.925 191.201,-102.538 184.434,-91.7103"/>
<polygon fill="black" stroke="black" points="187.367,-89.7994 179.099,-83.1744 181.431,-93.5094 187.367,-89.7994"/>
</g>
<!-- 0 -->
<g id="node21" class="node"><title>0</title>
<ellipse fill="none" stroke="red" cx="304.615" cy="-43" rx="64.678" ry="43"/>
<text text-anchor="middle" x="304.615" y="-58" font-family="Times,serif" font-size="10.00">ID: 0</text>
<text text-anchor="middle" x="304.615" y="-46" font-family="Times,serif" font-size="10.00">Number of features: 13</text>
<text text-anchor="middle" x="304.615" y="-34" font-family="Times,serif" font-size="10.00">Cumulative Appearance: 2</text>
<text text-anchor="middle" x="304.615" y="-22" font-family="Times,serif" font-size="10.00"> Appearance: 2</text>
</g>
<!-- 2&#45;&gt;0 -->
<g id="edge1" class="edge"><title>2&#45;&gt;0</title>
<path fill="none" stroke="black" d="M254.381,-124.375C260.912,-113.925 268.028,-102.538 274.796,-91.7103"/>
<polygon fill="black" stroke="black" points="277.799,-93.5094 280.131,-83.1744 271.863,-89.7994 277.799,-93.5094"/>
</g>
<!-- 3&#45;&gt;1 -->
<g id="edge3" class="edge"><title>3&#45;&gt;1</title>
<path fill="none" stroke="black" d="M97.8873,-125.039C105.446,-114.242 113.733,-102.403 121.582,-91.1899"/>
<polygon fill="black" stroke="black" points="124.612,-92.9646 127.479,-82.7651 118.877,-88.9503 124.612,-92.9646"/>
</g>
<!-- 4&#45;&gt;1 -->
<g id="edge4" class="edge"><title>4&#45;&gt;1</title>
<path fill="none" stroke="black" d="M336.579,-135.758C327.633,-131.069 318.392,-126.328 309.615,-122 275.009,-104.936 265.082,-103.344 230.615,-86 225.047,-83.1983 219.296,-80.2062 213.565,-77.1581"/>
<polygon fill="black" stroke="black" points="215.071,-73.9941 204.606,-72.3416 211.757,-80.1596 215.071,-73.9941"/>
</g>
</g>
</svg>
