<?xml version="1.0" encoding="UTF-8" standalone="no"?>
<!DOCTYPE svg PUBLIC "-//W3C//DTD SVG 1.1//EN"
 "http://www.w3.org/Graphics/SVG/1.1/DTD/svg11.dtd">
<!-- Generated by graphviz version 2.38.0 (20140413.2041)
 -->
<!-- Title: %3 Pages: 1 -->
<svg width="1874pt" height="704pt"
 viewBox="0.00 0.00 1874.22 704.00" xmlns="http://www.w3.org/2000/svg" xmlns:xlink="http://www.w3.org/1999/xlink">
<g id="graph0" class="graph" transform="scale(1 1) rotate(0) translate(4 700)">
<title>%3</title>
<polygon fill="white" stroke="none" points="-4,4 -4,-700 1870.22,-700 1870.22,4 -4,4"/>
<!-- 35 -->
<g id="node1" class="node"><title>35</title>
<ellipse fill="none" stroke="black" cx="1012.6" cy="-653" rx="73.7559" ry="43"/>
<text text-anchor="middle" x="1012.6" y="-668" font-family="Times,serif" font-size="10.00">ID: 35</text>
<text text-anchor="middle" x="1012.6" y="-656" font-family="Times,serif" font-size="10.00">Number of features: 7</text>
<text text-anchor="middle" x="1012.6" y="-644" font-family="Times,serif" font-size="10.00">Cumulative Appearance: 1293</text>
<text text-anchor="middle" x="1012.6" y="-632" font-family="Times,serif" font-size="10.00"> Appearance: None</text>
</g>
<!-- 30 -->
<g id="node2" class="node"><title>30</title>
<ellipse fill="none" stroke="green" cx="771.602" cy="-531" rx="73.7559" ry="43"/>
<text text-anchor="middle" x="771.602" y="-546" font-family="Times,serif" font-size="10.00">ID: 30</text>
<text text-anchor="middle" x="771.602" y="-534" font-family="Times,serif" font-size="10.00">Number of features: 8</text>
<text text-anchor="middle" x="771.602" y="-522" font-family="Times,serif" font-size="10.00">Cumulative Appearance: 1240</text>
<text text-anchor="middle" x="771.602" y="-510" font-family="Times,serif" font-size="10.00"> Appearance: 47</text>
</g>
<!-- 35&#45;&gt;30 -->
<g id="edge71" class="edge"><title>35&#45;&gt;30</title>
<path fill="none" stroke="black" d="M956.561,-624.801C926.054,-609.921 887.685,-591.087 853.602,-574 847.646,-571.014 841.457,-567.888 835.268,-564.746"/>
<polygon fill="black" stroke="black" points="836.729,-561.562 826.229,-560.146 833.554,-567.801 836.729,-561.562"/>
</g>
<!-- 32 -->
<g id="node3" class="node"><title>32</title>
<ellipse fill="none" stroke="black" cx="1092.6" cy="-531" rx="70.73" ry="43"/>
<text text-anchor="middle" x="1092.6" y="-546" font-family="Times,serif" font-size="10.00">ID: 32</text>
<text text-anchor="middle" x="1092.6" y="-534" font-family="Times,serif" font-size="10.00">Number of features: 8</text>
<text text-anchor="middle" x="1092.6" y="-522" font-family="Times,serif" font-size="10.00">Cumulative Appearance: 674</text>
<text text-anchor="middle" x="1092.6" y="-510" font-family="Times,serif" font-size="10.00"> Appearance: None</text>
</g>
<!-- 35&#45;&gt;32 -->
<g id="edge72" class="edge"><title>35&#45;&gt;32</title>
<path fill="none" stroke="black" d="M1038.8,-612.708C1045.77,-602.244 1053.39,-590.823 1060.63,-579.952"/>
<polygon fill="black" stroke="black" points="1063.71,-581.643 1066.35,-571.381 1057.89,-577.76 1063.71,-581.643"/>
</g>
<!-- 34 -->
<g id="node4" class="node"><title>34</title>
<ellipse fill="none" stroke="black" cx="1405.6" cy="-531" rx="70.73" ry="43"/>
<text text-anchor="middle" x="1405.6" y="-546" font-family="Times,serif" font-size="10.00">ID: 34</text>
<text text-anchor="middle" x="1405.6" y="-534" font-family="Times,serif" font-size="10.00">Number of features: 8</text>
<text text-anchor="middle" x="1405.6" y="-522" font-family="Times,serif" font-size="10.00">Cumulative Appearance: 751</text>
<text text-anchor="middle" x="1405.6" y="-510" font-family="Times,serif" font-size="10.00"> Appearance: None</text>
</g>
<!-- 35&#45;&gt;34 -->
<g id="edge73" class="edge"><title>35&#45;&gt;34</title>
<path fill="none" stroke="black" d="M1077.5,-632.184C1147.92,-610.683 1260.07,-576.439 1333.27,-554.087"/>
<polygon fill="black" stroke="black" points="1334.34,-557.418 1342.89,-551.15 1332.3,-550.723 1334.34,-557.418"/>
</g>
<!-- 36 -->
<g id="node5" class="node"><title>36</title>
<ellipse fill="none" stroke="black" cx="933.602" cy="-531" rx="70.73" ry="43"/>
<text text-anchor="middle" x="933.602" y="-546" font-family="Times,serif" font-size="10.00">ID: 36</text>
<text text-anchor="middle" x="933.602" y="-534" font-family="Times,serif" font-size="10.00">Number of features: 8</text>
<text text-anchor="middle" x="933.602" y="-522" font-family="Times,serif" font-size="10.00">Cumulative Appearance: 372</text>
<text text-anchor="middle" x="933.602" y="-510" font-family="Times,serif" font-size="10.00"> Appearance: None</text>
</g>
<!-- 35&#45;&gt;36 -->
<g id="edge74" class="edge"><title>35&#45;&gt;36</title>
<path fill="none" stroke="black" d="M986.734,-612.708C979.846,-602.244 972.327,-590.823 965.17,-579.952"/>
<polygon fill="black" stroke="black" points="967.95,-577.809 959.528,-571.381 962.103,-581.658 967.95,-577.809"/>
</g>
<!-- 23 -->
<g id="node6" class="node"><title>23</title>
<ellipse fill="none" stroke="green" cx="1171.6" cy="-409" rx="70.73" ry="43"/>
<text text-anchor="middle" x="1171.6" y="-424" font-family="Times,serif" font-size="10.00">ID: 23</text>
<text text-anchor="middle" x="1171.6" y="-412" font-family="Times,serif" font-size="10.00">Number of features: 9</text>
<text text-anchor="middle" x="1171.6" y="-400" font-family="Times,serif" font-size="10.00">Cumulative Appearance: 710</text>
<text text-anchor="middle" x="1171.6" y="-388" font-family="Times,serif" font-size="10.00"> Appearance: 54</text>
</g>
<!-- 30&#45;&gt;23 -->
<g id="edge55" class="edge"><title>30&#45;&gt;23</title>
<path fill="none" stroke="black" d="M823.455,-500.281C833.235,-495.593 843.553,-491.235 853.602,-488 955.855,-455.084 990.603,-485.696 1092.6,-452 1099.14,-449.839 1105.79,-447.167 1112.3,-444.225"/>
<polygon fill="black" stroke="black" points="1114.2,-447.2 1121.73,-439.75 1111.2,-440.876 1114.2,-447.2"/>
</g>
<!-- 24 -->
<g id="node7" class="node"><title>24</title>
<ellipse fill="none" stroke="green" cx="694.602" cy="-409" rx="70.73" ry="43"/>
<text text-anchor="middle" x="694.602" y="-424" font-family="Times,serif" font-size="10.00">ID: 24</text>
<text text-anchor="middle" x="694.602" y="-412" font-family="Times,serif" font-size="10.00">Number of features: 9</text>
<text text-anchor="middle" x="694.602" y="-400" font-family="Times,serif" font-size="10.00">Cumulative Appearance: 642</text>
<text text-anchor="middle" x="694.602" y="-388" font-family="Times,serif" font-size="10.00"> Appearance: 48</text>
</g>
<!-- 30&#45;&gt;24 -->
<g id="edge56" class="edge"><title>30&#45;&gt;24</title>
<path fill="none" stroke="black" d="M746.176,-490.375C739.539,-480.032 732.315,-468.773 725.431,-458.045"/>
<polygon fill="black" stroke="black" points="728.348,-456.11 720.001,-449.583 722.456,-459.89 728.348,-456.11"/>
</g>
<!-- 25 -->
<g id="node8" class="node"><title>25</title>
<ellipse fill="none" stroke="green" cx="853.602" cy="-409" rx="70.73" ry="43"/>
<text text-anchor="middle" x="853.602" y="-424" font-family="Times,serif" font-size="10.00">ID: 25</text>
<text text-anchor="middle" x="853.602" y="-412" font-family="Times,serif" font-size="10.00">Number of features: 9</text>
<text text-anchor="middle" x="853.602" y="-400" font-family="Times,serif" font-size="10.00">Cumulative Appearance: 360</text>
<text text-anchor="middle" x="853.602" y="-388" font-family="Times,serif" font-size="10.00"> Appearance: 47</text>
</g>
<!-- 30&#45;&gt;25 -->
<g id="edge57" class="edge"><title>30&#45;&gt;25</title>
<path fill="none" stroke="black" d="M798.452,-490.708C805.747,-480.032 813.724,-468.359 821.287,-457.29"/>
<polygon fill="black" stroke="black" points="824.22,-459.202 826.972,-448.971 818.44,-455.253 824.22,-459.202"/>
</g>
<!-- 26 -->
<g id="node9" class="node"><title>26</title>
<ellipse fill="none" stroke="green" cx="535.602" cy="-409" rx="70.73" ry="43"/>
<text text-anchor="middle" x="535.602" y="-424" font-family="Times,serif" font-size="10.00">ID: 26</text>
<text text-anchor="middle" x="535.602" y="-412" font-family="Times,serif" font-size="10.00">Number of features: 9</text>
<text text-anchor="middle" x="535.602" y="-400" font-family="Times,serif" font-size="10.00">Cumulative Appearance: 537</text>
<text text-anchor="middle" x="535.602" y="-388" font-family="Times,serif" font-size="10.00"> Appearance: 46</text>
</g>
<!-- 30&#45;&gt;26 -->
<g id="edge58" class="edge"><title>30&#45;&gt;26</title>
<path fill="none" stroke="black" d="M715.829,-502.756C685.745,-487.943 648.031,-469.186 614.602,-452 608.755,-448.994 602.681,-445.834 596.616,-442.652"/>
<polygon fill="black" stroke="black" points="598.243,-439.553 587.764,-437.992 594.982,-445.747 598.243,-439.553"/>
</g>
<!-- 27 -->
<g id="node10" class="node"><title>27</title>
<ellipse fill="none" stroke="green" cx="220.602" cy="-409" rx="70.73" ry="43"/>
<text text-anchor="middle" x="220.602" y="-424" font-family="Times,serif" font-size="10.00">ID: 27</text>
<text text-anchor="middle" x="220.602" y="-412" font-family="Times,serif" font-size="10.00">Number of features: 9</text>
<text text-anchor="middle" x="220.602" y="-400" font-family="Times,serif" font-size="10.00">Cumulative Appearance: 148</text>
<text text-anchor="middle" x="220.602" y="-388" font-family="Times,serif" font-size="10.00"> Appearance: 35</text>
</g>
<!-- 30&#45;&gt;27 -->
<g id="edge59" class="edge"><title>30&#45;&gt;27</title>
<path fill="none" stroke="black" d="M702.931,-515.045C599.423,-492.502 404.12,-449.968 296.51,-426.532"/>
<polygon fill="black" stroke="black" points="297.209,-423.102 286.693,-424.394 295.719,-429.942 297.209,-423.102"/>
</g>
<!-- 31 -->
<g id="node13" class="node"><title>31</title>
<ellipse fill="none" stroke="black" cx="1327.6" cy="-409" rx="67.704" ry="43"/>
<text text-anchor="middle" x="1327.6" y="-424" font-family="Times,serif" font-size="10.00">ID: 31</text>
<text text-anchor="middle" x="1327.6" y="-412" font-family="Times,serif" font-size="10.00">Number of features: 9</text>
<text text-anchor="middle" x="1327.6" y="-400" font-family="Times,serif" font-size="10.00">Cumulative Appearance: 44</text>
<text text-anchor="middle" x="1327.6" y="-388" font-family="Times,serif" font-size="10.00"> Appearance: None</text>
</g>
<!-- 30&#45;&gt;31 -->
<g id="edge60" class="edge"><title>30&#45;&gt;31</title>
<path fill="none" stroke="black" d="M822.859,-499.997C832.786,-495.277 843.308,-490.98 853.602,-488 1024.21,-438.612 1081.79,-504.069 1251.6,-452 1258.09,-450.011 1264.65,-447.422 1271.05,-444.507"/>
<polygon fill="black" stroke="black" points="1272.81,-447.542 1280.28,-440.033 1269.76,-441.241 1272.81,-447.542"/>
</g>
<!-- 32&#45;&gt;24 -->
<g id="edge63" class="edge"><title>32&#45;&gt;24</title>
<path fill="none" stroke="black" d="M1042.74,-500.245C1033.3,-495.561 1023.34,-491.213 1013.6,-488 911.176,-454.197 876.028,-485.803 773.602,-452 767.061,-449.841 760.416,-447.17 753.898,-444.229"/>
<polygon fill="black" stroke="black" points="755.004,-440.88 744.469,-439.755 752.003,-447.204 755.004,-440.88"/>
</g>
<!-- 29 -->
<g id="node12" class="node"><title>29</title>
<ellipse fill="none" stroke="green" cx="1012.6" cy="-409" rx="70.73" ry="43"/>
<text text-anchor="middle" x="1012.6" y="-424" font-family="Times,serif" font-size="10.00">ID: 29</text>
<text text-anchor="middle" x="1012.6" y="-412" font-family="Times,serif" font-size="10.00">Number of features: 9</text>
<text text-anchor="middle" x="1012.6" y="-400" font-family="Times,serif" font-size="10.00">Cumulative Appearance: 192</text>
<text text-anchor="middle" x="1012.6" y="-388" font-family="Times,serif" font-size="10.00"> Appearance: 12</text>
</g>
<!-- 32&#45;&gt;29 -->
<g id="edge64" class="edge"><title>32&#45;&gt;29</title>
<path fill="none" stroke="black" d="M1066.41,-490.708C1059.43,-480.244 1051.82,-468.823 1044.57,-457.952"/>
<polygon fill="black" stroke="black" points="1047.31,-455.76 1038.86,-449.381 1041.49,-459.643 1047.31,-455.76"/>
</g>
<!-- 33 -->
<g id="node14" class="node"><title>33</title>
<ellipse fill="none" stroke="black" cx="1483.6" cy="-409" rx="70.73" ry="43"/>
<text text-anchor="middle" x="1483.6" y="-424" font-family="Times,serif" font-size="10.00">ID: 33</text>
<text text-anchor="middle" x="1483.6" y="-412" font-family="Times,serif" font-size="10.00">Number of features: 9</text>
<text text-anchor="middle" x="1483.6" y="-400" font-family="Times,serif" font-size="10.00">Cumulative Appearance: 391</text>
<text text-anchor="middle" x="1483.6" y="-388" font-family="Times,serif" font-size="10.00"> Appearance: None</text>
</g>
<!-- 32&#45;&gt;33 -->
<g id="edge65" class="edge"><title>32&#45;&gt;33</title>
<path fill="none" stroke="black" d="M1160.09,-518.072C1224.28,-505.581 1322.9,-483.388 1404.6,-452 1410.93,-449.567 1417.41,-446.742 1423.78,-443.729"/>
<polygon fill="black" stroke="black" points="1425.59,-446.743 1433.03,-439.205 1422.51,-440.454 1425.59,-446.743"/>
</g>
<!-- 34&#45;&gt;23 -->
<g id="edge68" class="edge"><title>34&#45;&gt;23</title>
<path fill="none" stroke="black" d="M1351.65,-503.222C1321.79,-488.305 1284.05,-469.303 1250.6,-452 1244.99,-449.096 1239.16,-446.054 1233.34,-442.992"/>
<polygon fill="black" stroke="black" points="1234.69,-439.747 1224.21,-438.179 1231.42,-445.939 1234.69,-439.747"/>
</g>
<!-- 28 -->
<g id="node11" class="node"><title>28</title>
<ellipse fill="none" stroke="green" cx="1642.6" cy="-409" rx="70.73" ry="43"/>
<text text-anchor="middle" x="1642.6" y="-424" font-family="Times,serif" font-size="10.00">ID: 28</text>
<text text-anchor="middle" x="1642.6" y="-412" font-family="Times,serif" font-size="10.00">Number of features: 9</text>
<text text-anchor="middle" x="1642.6" y="-400" font-family="Times,serif" font-size="10.00">Cumulative Appearance: 337</text>
<text text-anchor="middle" x="1642.6" y="-388" font-family="Times,serif" font-size="10.00"> Appearance: 21</text>
</g>
<!-- 34&#45;&gt;28 -->
<g id="edge69" class="edge"><title>34&#45;&gt;28</title>
<path fill="none" stroke="black" d="M1460.28,-503.508C1490.8,-488.598 1529.44,-469.51 1563.6,-452 1569.45,-449.001 1575.53,-445.846 1581.6,-442.668"/>
<polygon fill="black" stroke="black" points="1583.23,-445.763 1590.45,-438.011 1579.97,-439.568 1583.23,-445.763"/>
</g>
<!-- 34&#45;&gt;33 -->
<g id="edge70" class="edge"><title>34&#45;&gt;33</title>
<path fill="none" stroke="black" d="M1431.14,-490.708C1437.94,-480.244 1445.37,-468.823 1452.43,-457.952"/>
<polygon fill="black" stroke="black" points="1455.49,-459.673 1458,-449.381 1449.62,-455.858 1455.49,-459.673"/>
</g>
<!-- 36&#45;&gt;25 -->
<g id="edge75" class="edge"><title>36&#45;&gt;25</title>
<path fill="none" stroke="black" d="M907.407,-490.708C900.431,-480.244 892.817,-468.823 885.57,-457.952"/>
<polygon fill="black" stroke="black" points="888.315,-455.76 879.856,-449.381 882.491,-459.643 888.315,-455.76"/>
</g>
<!-- 36&#45;&gt;29 -->
<g id="edge76" class="edge"><title>36&#45;&gt;29</title>
<path fill="none" stroke="black" d="M959.469,-490.708C966.358,-480.244 973.877,-468.823 981.033,-457.952"/>
<polygon fill="black" stroke="black" points="984.101,-459.658 986.676,-449.381 978.254,-455.809 984.101,-459.658"/>
</g>
<!-- 11 -->
<g id="node15" class="node"><title>11</title>
<ellipse fill="none" stroke="green" cx="1171.6" cy="-287" rx="70.73" ry="43"/>
<text text-anchor="middle" x="1171.6" y="-302" font-family="Times,serif" font-size="10.00">ID: 11</text>
<text text-anchor="middle" x="1171.6" y="-290" font-family="Times,serif" font-size="10.00">Number of features: 10</text>
<text text-anchor="middle" x="1171.6" y="-278" font-family="Times,serif" font-size="10.00">Cumulative Appearance: 371</text>
<text text-anchor="middle" x="1171.6" y="-266" font-family="Times,serif" font-size="10.00"> Appearance: 76</text>
</g>
<!-- 23&#45;&gt;11 -->
<g id="edge33" class="edge"><title>23&#45;&gt;11</title>
<path fill="none" stroke="black" d="M1171.6,-365.692C1171.6,-357.537 1171.6,-348.903 1171.6,-340.47"/>
<polygon fill="black" stroke="black" points="1175.1,-340.33 1171.6,-330.33 1168.1,-340.33 1175.1,-340.33"/>
</g>
<!-- 12 -->
<g id="node16" class="node"><title>12</title>
<ellipse fill="none" stroke="green" cx="1483.6" cy="-287" rx="70.73" ry="43"/>
<text text-anchor="middle" x="1483.6" y="-302" font-family="Times,serif" font-size="10.00">ID: 12</text>
<text text-anchor="middle" x="1483.6" y="-290" font-family="Times,serif" font-size="10.00">Number of features: 10</text>
<text text-anchor="middle" x="1483.6" y="-278" font-family="Times,serif" font-size="10.00">Cumulative Appearance: 296</text>
<text text-anchor="middle" x="1483.6" y="-266" font-family="Times,serif" font-size="10.00"> Appearance: 69</text>
</g>
<!-- 23&#45;&gt;12 -->
<g id="edge34" class="edge"><title>23&#45;&gt;12</title>
<path fill="none" stroke="black" d="M1222.12,-378.674C1231.4,-374.003 1241.15,-369.549 1250.6,-366 1316.41,-341.295 1338.8,-354.705 1404.6,-330 1410.95,-327.616 1417.44,-324.823 1423.82,-321.83"/>
<polygon fill="black" stroke="black" points="1425.62,-324.848 1433.08,-317.326 1422.56,-318.553 1425.62,-324.848"/>
</g>
<!-- 15 -->
<g id="node19" class="node"><title>15</title>
<ellipse fill="none" stroke="green" cx="853.602" cy="-287" rx="70.73" ry="43"/>
<text text-anchor="middle" x="853.602" y="-302" font-family="Times,serif" font-size="10.00">ID: 15</text>
<text text-anchor="middle" x="853.602" y="-290" font-family="Times,serif" font-size="10.00">Number of features: 10</text>
<text text-anchor="middle" x="853.602" y="-278" font-family="Times,serif" font-size="10.00">Cumulative Appearance: 303</text>
<text text-anchor="middle" x="853.602" y="-266" font-family="Times,serif" font-size="10.00"> Appearance: 45</text>
</g>
<!-- 23&#45;&gt;15 -->
<g id="edge35" class="edge"><title>23&#45;&gt;15</title>
<path fill="none" stroke="black" d="M1121.1,-378.608C1111.82,-373.944 1102.07,-369.509 1092.6,-366 1024.26,-340.666 1000.95,-355.334 932.602,-330 926.241,-327.642 919.752,-324.867 913.362,-321.884"/>
<polygon fill="black" stroke="black" points="914.625,-318.607 904.1,-317.392 911.57,-324.905 914.625,-318.607"/>
</g>
<!-- 18 -->
<g id="node22" class="node"><title>18</title>
<ellipse fill="none" stroke="green" cx="1012.6" cy="-287" rx="70.73" ry="43"/>
<text text-anchor="middle" x="1012.6" y="-302" font-family="Times,serif" font-size="10.00">ID: 18</text>
<text text-anchor="middle" x="1012.6" y="-290" font-family="Times,serif" font-size="10.00">Number of features: 10</text>
<text text-anchor="middle" x="1012.6" y="-278" font-family="Times,serif" font-size="10.00">Cumulative Appearance: 162</text>
<text text-anchor="middle" x="1012.6" y="-266" font-family="Times,serif" font-size="10.00"> Appearance: 41</text>
</g>
<!-- 23&#45;&gt;18 -->
<g id="edge36" class="edge"><title>23&#45;&gt;18</title>
<path fill="none" stroke="black" d="M1127.73,-374.892C1108.1,-360.071 1084.8,-342.49 1064.32,-327.032"/>
<polygon fill="black" stroke="black" points="1066.42,-324.231 1056.33,-321 1062.2,-329.818 1066.42,-324.231"/>
</g>
<!-- 21 -->
<g id="node25" class="node"><title>21</title>
<ellipse fill="none" stroke="green" cx="1639.6" cy="-287" rx="67.704" ry="43"/>
<text text-anchor="middle" x="1639.6" y="-302" font-family="Times,serif" font-size="10.00">ID: 21</text>
<text text-anchor="middle" x="1639.6" y="-290" font-family="Times,serif" font-size="10.00">Number of features: 10</text>
<text text-anchor="middle" x="1639.6" y="-278" font-family="Times,serif" font-size="10.00">Cumulative Appearance: 32</text>
<text text-anchor="middle" x="1639.6" y="-266" font-family="Times,serif" font-size="10.00"> Appearance: 15</text>
</g>
<!-- 23&#45;&gt;21 -->
<g id="edge37" class="edge"><title>23&#45;&gt;21</title>
<path fill="none" stroke="black" d="M1220.95,-378.179C1230.52,-373.441 1240.66,-369.091 1250.6,-366 1384.31,-324.408 1430.23,-372.675 1563.6,-330 1570.07,-327.932 1576.61,-325.292 1583,-322.346"/>
<polygon fill="black" stroke="black" points="1584.77,-325.374 1592.22,-317.842 1581.7,-319.083 1584.77,-325.374"/>
</g>
<!-- 24&#45;&gt;11 -->
<g id="edge38" class="edge"><title>24&#45;&gt;11</title>
<path fill="none" stroke="black" d="M743.946,-378.162C753.512,-373.426 763.661,-369.081 773.602,-366 909.886,-323.766 956.318,-372.234 1092.6,-330 1099.44,-327.882 1106.37,-325.167 1113.14,-322.137"/>
<polygon fill="black" stroke="black" points="1114.71,-325.269 1122.26,-317.838 1111.72,-318.938 1114.71,-325.269"/>
</g>
<!-- 13 -->
<g id="node17" class="node"><title>13</title>
<ellipse fill="none" stroke="green" cx="694.602" cy="-287" rx="70.73" ry="43"/>
<text text-anchor="middle" x="694.602" y="-302" font-family="Times,serif" font-size="10.00">ID: 13</text>
<text text-anchor="middle" x="694.602" y="-290" font-family="Times,serif" font-size="10.00">Number of features: 10</text>
<text text-anchor="middle" x="694.602" y="-278" font-family="Times,serif" font-size="10.00">Cumulative Appearance: 180</text>
<text text-anchor="middle" x="694.602" y="-266" font-family="Times,serif" font-size="10.00"> Appearance: 58</text>
</g>
<!-- 24&#45;&gt;13 -->
<g id="edge39" class="edge"><title>24&#45;&gt;13</title>
<path fill="none" stroke="black" d="M694.602,-365.692C694.602,-357.537 694.602,-348.903 694.602,-340.47"/>
<polygon fill="black" stroke="black" points="698.102,-340.33 694.602,-330.33 691.102,-340.33 698.102,-340.33"/>
</g>
<!-- 14 -->
<g id="node18" class="node"><title>14</title>
<ellipse fill="none" stroke="green" cx="220.602" cy="-287" rx="67.704" ry="43"/>
<text text-anchor="middle" x="220.602" y="-302" font-family="Times,serif" font-size="10.00">ID: 14</text>
<text text-anchor="middle" x="220.602" y="-290" font-family="Times,serif" font-size="10.00">Number of features: 10</text>
<text text-anchor="middle" x="220.602" y="-278" font-family="Times,serif" font-size="10.00">Cumulative Appearance: 83</text>
<text text-anchor="middle" x="220.602" y="-266" font-family="Times,serif" font-size="10.00"> Appearance: 49</text>
</g>
<!-- 24&#45;&gt;14 -->
<g id="edge40" class="edge"><title>24&#45;&gt;14</title>
<path fill="none" stroke="black" d="M645.258,-378.162C635.691,-373.426 625.543,-369.081 615.602,-366 479.318,-323.766 432.539,-373.337 296.602,-330 290.136,-327.939 283.595,-325.304 277.204,-322.36"/>
<polygon fill="black" stroke="black" points="278.496,-319.097 267.974,-317.859 275.427,-325.388 278.496,-319.097"/>
</g>
<!-- 16 -->
<g id="node20" class="node"><title>16</title>
<ellipse fill="none" stroke="green" cx="376.602" cy="-287" rx="70.73" ry="43"/>
<text text-anchor="middle" x="376.602" y="-302" font-family="Times,serif" font-size="10.00">ID: 16</text>
<text text-anchor="middle" x="376.602" y="-290" font-family="Times,serif" font-size="10.00">Number of features: 10</text>
<text text-anchor="middle" x="376.602" y="-278" font-family="Times,serif" font-size="10.00">Cumulative Appearance: 274</text>
<text text-anchor="middle" x="376.602" y="-266" font-family="Times,serif" font-size="10.00"> Appearance: 43</text>
</g>
<!-- 24&#45;&gt;16 -->
<g id="edge41" class="edge"><title>24&#45;&gt;16</title>
<path fill="none" stroke="black" d="M644.104,-378.608C634.822,-373.944 625.069,-369.509 615.602,-366 547.257,-340.666 523.946,-355.334 455.602,-330 449.241,-327.642 442.752,-324.867 436.362,-321.884"/>
<polygon fill="black" stroke="black" points="437.625,-318.607 427.1,-317.392 434.57,-324.905 437.625,-318.607"/>
</g>
<!-- 25&#45;&gt;13 -->
<g id="edge42" class="edge"><title>25&#45;&gt;13</title>
<path fill="none" stroke="black" d="M809.734,-374.892C790.096,-360.071 766.801,-342.49 746.319,-327.032"/>
<polygon fill="black" stroke="black" points="748.417,-324.231 738.327,-321 744.201,-329.818 748.417,-324.231"/>
</g>
<!-- 17 -->
<g id="node21" class="node"><title>17</title>
<ellipse fill="none" stroke="green" cx="535.602" cy="-287" rx="70.73" ry="43"/>
<text text-anchor="middle" x="535.602" y="-302" font-family="Times,serif" font-size="10.00">ID: 17</text>
<text text-anchor="middle" x="535.602" y="-290" font-family="Times,serif" font-size="10.00">Number of features: 10</text>
<text text-anchor="middle" x="535.602" y="-278" font-family="Times,serif" font-size="10.00">Cumulative Appearance: 135</text>
<text text-anchor="middle" x="535.602" y="-266" font-family="Times,serif" font-size="10.00"> Appearance: 42</text>
</g>
<!-- 25&#45;&gt;17 -->
<g id="edge43" class="edge"><title>25&#45;&gt;17</title>
<path fill="none" stroke="black" d="M803.104,-378.608C793.822,-373.944 784.069,-369.509 774.602,-366 706.257,-340.666 682.946,-355.334 614.602,-330 608.241,-327.642 601.752,-324.867 595.362,-321.884"/>
<polygon fill="black" stroke="black" points="596.625,-318.607 586.1,-317.392 593.57,-324.905 596.625,-318.607"/>
</g>
<!-- 25&#45;&gt;18 -->
<g id="edge44" class="edge"><title>25&#45;&gt;18</title>
<path fill="none" stroke="black" d="M897.47,-374.892C917.108,-360.071 940.403,-342.49 960.884,-327.032"/>
<polygon fill="black" stroke="black" points="963.003,-329.818 968.877,-321 958.786,-324.231 963.003,-329.818"/>
</g>
<!-- 22 -->
<g id="node26" class="node"><title>22</title>
<ellipse fill="none" stroke="green" cx="1327.6" cy="-287" rx="67.704" ry="43"/>
<text text-anchor="middle" x="1327.6" y="-302" font-family="Times,serif" font-size="10.00">ID: 22</text>
<text text-anchor="middle" x="1327.6" y="-290" font-family="Times,serif" font-size="10.00">Number of features: 10</text>
<text text-anchor="middle" x="1327.6" y="-278" font-family="Times,serif" font-size="10.00">Cumulative Appearance: 27</text>
<text text-anchor="middle" x="1327.6" y="-266" font-family="Times,serif" font-size="10.00"> Appearance: 12</text>
</g>
<!-- 25&#45;&gt;22 -->
<g id="edge45" class="edge"><title>25&#45;&gt;22</title>
<path fill="none" stroke="black" d="M902.946,-378.162C912.512,-373.426 922.661,-369.081 932.602,-366 1068.89,-323.766 1115.67,-373.337 1251.6,-330 1258.07,-327.939 1264.61,-325.304 1271,-322.36"/>
<polygon fill="black" stroke="black" points="1272.78,-325.388 1280.23,-317.859 1269.71,-319.097 1272.78,-325.388"/>
</g>
<!-- 26&#45;&gt;15 -->
<g id="edge46" class="edge"><title>26&#45;&gt;15</title>
<path fill="none" stroke="black" d="M586.1,-378.608C595.382,-373.944 605.135,-369.509 614.602,-366 682.946,-340.666 706.257,-355.334 774.602,-330 780.963,-327.642 787.452,-324.867 793.842,-321.884"/>
<polygon fill="black" stroke="black" points="795.634,-324.905 803.104,-317.392 792.579,-318.607 795.634,-324.905"/>
</g>
<!-- 26&#45;&gt;16 -->
<g id="edge47" class="edge"><title>26&#45;&gt;16</title>
<path fill="none" stroke="black" d="M491.734,-374.892C472.096,-360.071 448.801,-342.49 428.319,-327.032"/>
<polygon fill="black" stroke="black" points="430.417,-324.231 420.327,-321 426.201,-329.818 430.417,-324.231"/>
</g>
<!-- 26&#45;&gt;17 -->
<g id="edge48" class="edge"><title>26&#45;&gt;17</title>
<path fill="none" stroke="black" d="M535.602,-365.692C535.602,-357.537 535.602,-348.903 535.602,-340.47"/>
<polygon fill="black" stroke="black" points="539.102,-340.33 535.602,-330.33 532.102,-340.33 539.102,-340.33"/>
</g>
<!-- 19 -->
<g id="node23" class="node"><title>19</title>
<ellipse fill="none" stroke="green" cx="67.6019" cy="-287" rx="67.704" ry="43"/>
<text text-anchor="middle" x="67.6019" y="-302" font-family="Times,serif" font-size="10.00">ID: 19</text>
<text text-anchor="middle" x="67.6019" y="-290" font-family="Times,serif" font-size="10.00">Number of features: 10</text>
<text text-anchor="middle" x="67.6019" y="-278" font-family="Times,serif" font-size="10.00">Cumulative Appearance: 64</text>
<text text-anchor="middle" x="67.6019" y="-266" font-family="Times,serif" font-size="10.00"> Appearance: 30</text>
</g>
<!-- 26&#45;&gt;19 -->
<g id="edge49" class="edge"><title>26&#45;&gt;19</title>
<path fill="none" stroke="black" d="M467.981,-395.718C364.002,-376.655 173.66,-340.994 143.602,-330 137.324,-327.704 130.94,-324.943 124.676,-321.947"/>
<polygon fill="black" stroke="black" points="126.12,-318.756 115.61,-317.417 122.991,-325.018 126.12,-318.756"/>
</g>
<!-- 27&#45;&gt;14 -->
<g id="edge50" class="edge"><title>27&#45;&gt;14</title>
<path fill="none" stroke="black" d="M220.602,-365.692C220.602,-357.537 220.602,-348.903 220.602,-340.47"/>
<polygon fill="black" stroke="black" points="224.102,-340.33 220.602,-330.33 217.102,-340.33 224.102,-340.33"/>
</g>
<!-- 27&#45;&gt;19 -->
<g id="edge51" class="edge"><title>27&#45;&gt;19</title>
<path fill="none" stroke="black" d="M177.983,-374.573C159.176,-359.823 136.946,-342.387 117.382,-327.043"/>
<polygon fill="black" stroke="black" points="119.492,-324.25 109.464,-320.833 115.172,-329.758 119.492,-324.25"/>
</g>
<!-- 28&#45;&gt;12 -->
<g id="edge52" class="edge"><title>28&#45;&gt;12</title>
<path fill="none" stroke="black" d="M1598.73,-374.892C1579.1,-360.071 1555.8,-342.49 1535.32,-327.032"/>
<polygon fill="black" stroke="black" points="1537.42,-324.231 1527.33,-321 1533.2,-329.818 1537.42,-324.231"/>
</g>
<!-- 20 -->
<g id="node24" class="node"><title>20</title>
<ellipse fill="none" stroke="green" cx="1795.6" cy="-287" rx="70.73" ry="43"/>
<text text-anchor="middle" x="1795.6" y="-302" font-family="Times,serif" font-size="10.00">ID: 20</text>
<text text-anchor="middle" x="1795.6" y="-290" font-family="Times,serif" font-size="10.00">Number of features: 10</text>
<text text-anchor="middle" x="1795.6" y="-278" font-family="Times,serif" font-size="10.00">Cumulative Appearance: 170</text>
<text text-anchor="middle" x="1795.6" y="-266" font-family="Times,serif" font-size="10.00"> Appearance: 20</text>
</g>
<!-- 28&#45;&gt;20 -->
<g id="edge53" class="edge"><title>28&#45;&gt;20</title>
<path fill="none" stroke="black" d="M1685.22,-374.573C1703.71,-360.071 1725.51,-342.972 1744.83,-327.818"/>
<polygon fill="black" stroke="black" points="1747.24,-330.381 1752.95,-321.455 1742.92,-324.873 1747.24,-330.381"/>
</g>
<!-- 29&#45;&gt;13 -->
<g id="edge54" class="edge"><title>29&#45;&gt;13</title>
<path fill="none" stroke="black" d="M962.104,-378.608C952.822,-373.944 943.069,-369.509 933.602,-366 865.257,-340.666 841.946,-355.334 773.602,-330 767.241,-327.642 760.752,-324.867 754.362,-321.884"/>
<polygon fill="black" stroke="black" points="755.625,-318.607 745.1,-317.392 752.57,-324.905 755.625,-318.607"/>
</g>
<!-- 31&#45;&gt;21 -->
<g id="edge61" class="edge"><title>31&#45;&gt;21</title>
<path fill="none" stroke="black" d="M1376.09,-378.56C1385.03,-373.901 1394.44,-369.48 1403.6,-366 1471.74,-340.113 1495.47,-355.887 1563.6,-330 1569.61,-327.716 1575.73,-325.027 1581.75,-322.132"/>
<polygon fill="black" stroke="black" points="1583.74,-325.051 1591.11,-317.44 1580.6,-318.794 1583.74,-325.051"/>
</g>
<!-- 31&#45;&gt;22 -->
<g id="edge62" class="edge"><title>31&#45;&gt;22</title>
<path fill="none" stroke="black" d="M1327.6,-365.692C1327.6,-357.537 1327.6,-348.903 1327.6,-340.47"/>
<polygon fill="black" stroke="black" points="1331.1,-340.33 1327.6,-330.33 1324.1,-340.33 1331.1,-340.33"/>
</g>
<!-- 33&#45;&gt;11 -->
<g id="edge66" class="edge"><title>33&#45;&gt;11</title>
<path fill="none" stroke="black" d="M1433.08,-378.674C1423.8,-374.003 1414.05,-369.549 1404.6,-366 1338.8,-341.295 1316.41,-354.705 1250.6,-330 1244.25,-327.616 1237.77,-324.823 1231.38,-321.83"/>
<polygon fill="black" stroke="black" points="1232.65,-318.553 1222.12,-317.326 1229.59,-324.848 1232.65,-318.553"/>
</g>
<!-- 33&#45;&gt;20 -->
<g id="edge67" class="edge"><title>33&#45;&gt;20</title>
<path fill="none" stroke="black" d="M1534.12,-378.674C1543.4,-374.003 1553.15,-369.549 1562.6,-366 1628.41,-341.295 1650.8,-354.705 1716.6,-330 1722.95,-327.616 1729.44,-324.823 1735.82,-321.83"/>
<polygon fill="black" stroke="black" points="1737.62,-324.848 1745.08,-317.326 1734.56,-318.553 1737.62,-324.848"/>
</g>
<!-- 3 -->
<g id="node27" class="node"><title>3</title>
<ellipse fill="none" stroke="green" cx="1483.6" cy="-165" rx="70.73" ry="43"/>
<text text-anchor="middle" x="1483.6" y="-180" font-family="Times,serif" font-size="10.00">ID: 3</text>
<text text-anchor="middle" x="1483.6" y="-168" font-family="Times,serif" font-size="10.00">Number of features: 11</text>
<text text-anchor="middle" x="1483.6" y="-156" font-family="Times,serif" font-size="10.00">Cumulative Appearance: 150</text>
<text text-anchor="middle" x="1483.6" y="-144" font-family="Times,serif" font-size="10.00"> Appearance: 83</text>
</g>
<!-- 11&#45;&gt;3 -->
<g id="edge9" class="edge"><title>11&#45;&gt;3</title>
<path fill="none" stroke="black" d="M1222.12,-256.674C1231.4,-252.003 1241.15,-247.549 1250.6,-244 1316.41,-219.295 1338.8,-232.705 1404.6,-208 1410.95,-205.616 1417.44,-202.823 1423.82,-199.83"/>
<polygon fill="black" stroke="black" points="1425.62,-202.848 1433.08,-195.326 1422.56,-196.553 1425.62,-202.848"/>
</g>
<!-- 5 -->
<g id="node29" class="node"><title>5</title>
<ellipse fill="none" stroke="green" cx="856.602" cy="-165" rx="70.73" ry="43"/>
<text text-anchor="middle" x="856.602" y="-180" font-family="Times,serif" font-size="10.00">ID: 5</text>
<text text-anchor="middle" x="856.602" y="-168" font-family="Times,serif" font-size="10.00">Number of features: 11</text>
<text text-anchor="middle" x="856.602" y="-156" font-family="Times,serif" font-size="10.00">Cumulative Appearance: 158</text>
<text text-anchor="middle" x="856.602" y="-144" font-family="Times,serif" font-size="10.00"> Appearance: 62</text>
</g>
<!-- 11&#45;&gt;5 -->
<g id="edge10" class="edge"><title>11&#45;&gt;5</title>
<path fill="none" stroke="black" d="M1121.09,-256.641C1111.81,-251.973 1102.06,-247.529 1092.6,-244 1025.53,-218.981 1002.68,-233.019 935.602,-208 929.246,-205.629 922.76,-202.845 916.372,-199.857"/>
<polygon fill="black" stroke="black" points="917.636,-196.58 907.112,-195.359 914.577,-202.877 917.636,-196.58"/>
</g>
<!-- 6 -->
<g id="node30" class="node"><title>6</title>
<ellipse fill="none" stroke="green" cx="1012.6" cy="-165" rx="67.704" ry="43"/>
<text text-anchor="middle" x="1012.6" y="-180" font-family="Times,serif" font-size="10.00">ID: 6</text>
<text text-anchor="middle" x="1012.6" y="-168" font-family="Times,serif" font-size="10.00">Number of features: 11</text>
<text text-anchor="middle" x="1012.6" y="-156" font-family="Times,serif" font-size="10.00">Cumulative Appearance: 83</text>
<text text-anchor="middle" x="1012.6" y="-144" font-family="Times,serif" font-size="10.00"> Appearance: 52</text>
</g>
<!-- 11&#45;&gt;6 -->
<g id="edge11" class="edge"><title>11&#45;&gt;6</title>
<path fill="none" stroke="black" d="M1127.73,-252.892C1107.85,-237.887 1084.22,-220.053 1063.56,-204.458"/>
<polygon fill="black" stroke="black" points="1065.59,-201.608 1055.5,-198.378 1061.38,-207.196 1065.59,-201.608"/>
</g>
<!-- 12&#45;&gt;3 -->
<g id="edge12" class="edge"><title>12&#45;&gt;3</title>
<path fill="none" stroke="black" d="M1483.6,-243.692C1483.6,-235.537 1483.6,-226.903 1483.6,-218.47"/>
<polygon fill="black" stroke="black" points="1487.1,-218.33 1483.6,-208.33 1480.1,-218.33 1487.1,-218.33"/>
</g>
<!-- 4 -->
<g id="node28" class="node"><title>4</title>
<ellipse fill="none" stroke="green" cx="1170.6" cy="-165" rx="70.73" ry="43"/>
<text text-anchor="middle" x="1170.6" y="-180" font-family="Times,serif" font-size="10.00">ID: 4</text>
<text text-anchor="middle" x="1170.6" y="-168" font-family="Times,serif" font-size="10.00">Number of features: 11</text>
<text text-anchor="middle" x="1170.6" y="-156" font-family="Times,serif" font-size="10.00">Cumulative Appearance: 142</text>
<text text-anchor="middle" x="1170.6" y="-144" font-family="Times,serif" font-size="10.00"> Appearance: 77</text>
</g>
<!-- 12&#45;&gt;4 -->
<g id="edge13" class="edge"><title>12&#45;&gt;4</title>
<path fill="none" stroke="black" d="M1433.08,-256.674C1423.8,-252.003 1414.05,-247.549 1404.6,-244 1338.8,-219.295 1316.47,-232.534 1250.6,-208 1243.93,-205.516 1237.11,-202.592 1230.41,-199.464"/>
<polygon fill="black" stroke="black" points="1231.89,-196.291 1221.36,-195.093 1228.84,-202.594 1231.89,-196.291"/>
</g>
<!-- 13&#45;&gt;6 -->
<g id="edge14" class="edge"><title>13&#45;&gt;6</title>
<path fill="none" stroke="black" d="M745.088,-256.577C754.372,-251.916 764.128,-247.491 773.602,-244 843.217,-218.351 867.197,-234.213 936.602,-208 942.856,-205.638 949.223,-202.834 955.478,-199.812"/>
<polygon fill="black" stroke="black" points="957.174,-202.877 964.533,-195.255 954.027,-196.624 957.174,-202.877"/>
</g>
<!-- 7 -->
<g id="node31" class="node"><title>7</title>
<ellipse fill="none" stroke="green" cx="541.602" cy="-165" rx="67.704" ry="43"/>
<text text-anchor="middle" x="541.602" y="-180" font-family="Times,serif" font-size="10.00">ID: 7</text>
<text text-anchor="middle" x="541.602" y="-168" font-family="Times,serif" font-size="10.00">Number of features: 11</text>
<text text-anchor="middle" x="541.602" y="-156" font-family="Times,serif" font-size="10.00">Cumulative Appearance: 70</text>
<text text-anchor="middle" x="541.602" y="-144" font-family="Times,serif" font-size="10.00"> Appearance: 39</text>
</g>
<!-- 13&#45;&gt;7 -->
<g id="edge15" class="edge"><title>13&#45;&gt;7</title>
<path fill="none" stroke="black" d="M651.983,-252.573C633.176,-237.823 610.946,-220.387 591.382,-205.043"/>
<polygon fill="black" stroke="black" points="593.492,-202.25 583.464,-198.833 589.172,-207.758 593.492,-202.25"/>
</g>
<!-- 8 -->
<g id="node32" class="node"><title>8</title>
<ellipse fill="none" stroke="green" cx="220.602" cy="-165" rx="67.704" ry="43"/>
<text text-anchor="middle" x="220.602" y="-180" font-family="Times,serif" font-size="10.00">ID: 8</text>
<text text-anchor="middle" x="220.602" y="-168" font-family="Times,serif" font-size="10.00">Number of features: 11</text>
<text text-anchor="middle" x="220.602" y="-156" font-family="Times,serif" font-size="10.00">Cumulative Appearance: 34</text>
<text text-anchor="middle" x="220.602" y="-144" font-family="Times,serif" font-size="10.00"> Appearance: 34</text>
</g>
<!-- 14&#45;&gt;8 -->
<g id="edge16" class="edge"><title>14&#45;&gt;8</title>
<path fill="none" stroke="black" d="M220.602,-243.692C220.602,-235.537 220.602,-226.903 220.602,-218.47"/>
<polygon fill="black" stroke="black" points="224.102,-218.33 220.602,-208.33 217.102,-218.33 224.102,-218.33"/>
</g>
<!-- 15&#45;&gt;4 -->
<g id="edge17" class="edge"><title>15&#45;&gt;4</title>
<path fill="none" stroke="black" d="M904.112,-256.641C913.393,-251.973 923.142,-247.529 932.602,-244 999.676,-218.981 1022.4,-232.674 1089.6,-208 1096.45,-205.485 1103.46,-202.516 1110.34,-199.336"/>
<polygon fill="black" stroke="black" points="1112.12,-202.366 1119.63,-194.894 1109.1,-196.051 1112.12,-202.366"/>
</g>
<!-- 15&#45;&gt;5 -->
<g id="edge18" class="edge"><title>15&#45;&gt;5</title>
<path fill="none" stroke="black" d="M854.66,-243.692C854.863,-235.537 855.079,-226.903 855.29,-218.47"/>
<polygon fill="black" stroke="black" points="858.793,-218.414 855.544,-208.33 851.795,-218.239 858.793,-218.414"/>
</g>
<!-- 9 -->
<g id="node33" class="node"><title>9</title>
<ellipse fill="none" stroke="green" cx="700.602" cy="-165" rx="67.704" ry="43"/>
<text text-anchor="middle" x="700.602" y="-180" font-family="Times,serif" font-size="10.00">ID: 9</text>
<text text-anchor="middle" x="700.602" y="-168" font-family="Times,serif" font-size="10.00">Number of features: 11</text>
<text text-anchor="middle" x="700.602" y="-156" font-family="Times,serif" font-size="10.00">Cumulative Appearance: 54</text>
<text text-anchor="middle" x="700.602" y="-144" font-family="Times,serif" font-size="10.00"> Appearance: 23</text>
</g>
<!-- 15&#45;&gt;9 -->
<g id="edge19" class="edge"><title>15&#45;&gt;9</title>
<path fill="none" stroke="black" d="M810.983,-252.573C792.176,-237.823 769.946,-220.387 750.382,-205.043"/>
<polygon fill="black" stroke="black" points="752.492,-202.25 742.464,-198.833 748.172,-207.758 752.492,-202.25"/>
</g>
<!-- 16&#45;&gt;5 -->
<g id="edge20" class="edge"><title>16&#45;&gt;5</title>
<path fill="none" stroke="black" d="M425.943,-256.154C435.51,-251.418 445.66,-247.075 455.602,-244 593.173,-201.446 640.03,-250.554 777.602,-208 784.437,-205.886 791.371,-203.172 798.145,-200.144"/>
<polygon fill="black" stroke="black" points="799.708,-203.277 807.261,-195.846 796.723,-196.945 799.708,-203.277"/>
</g>
<!-- 16&#45;&gt;7 -->
<g id="edge21" class="edge"><title>16&#45;&gt;7</title>
<path fill="none" stroke="black" d="M421.253,-253.526C442.326,-238.201 467.605,-219.816 489.543,-203.861"/>
<polygon fill="black" stroke="black" points="491.743,-206.589 497.772,-197.877 487.626,-200.928 491.743,-206.589"/>
</g>
<!-- 16&#45;&gt;8 -->
<g id="edge22" class="edge"><title>16&#45;&gt;8</title>
<path fill="none" stroke="black" d="M333.561,-252.892C314.221,-238.014 291.264,-220.356 271.114,-204.856"/>
<polygon fill="black" stroke="black" points="273.023,-201.908 262.962,-198.585 268.755,-207.456 273.023,-201.908"/>
</g>
<!-- 17&#45;&gt;7 -->
<g id="edge23" class="edge"><title>17&#45;&gt;7</title>
<path fill="none" stroke="black" d="M537.717,-243.692C538.125,-235.537 538.557,-226.903 538.978,-218.47"/>
<polygon fill="black" stroke="black" points="542.482,-218.492 539.485,-208.33 535.49,-218.143 542.482,-218.492"/>
</g>
<!-- 17&#45;&gt;9 -->
<g id="edge24" class="edge"><title>17&#45;&gt;9</title>
<path fill="none" stroke="black" d="M580.253,-253.526C601.326,-238.201 626.605,-219.816 648.543,-203.861"/>
<polygon fill="black" stroke="black" points="650.743,-206.589 656.772,-197.877 646.626,-200.928 650.743,-206.589"/>
</g>
<!-- 18&#45;&gt;6 -->
<g id="edge25" class="edge"><title>18&#45;&gt;6</title>
<path fill="none" stroke="black" d="M1012.6,-243.692C1012.6,-235.537 1012.6,-226.903 1012.6,-218.47"/>
<polygon fill="black" stroke="black" points="1016.1,-218.33 1012.6,-208.33 1009.1,-218.33 1016.1,-218.33"/>
</g>
<!-- 18&#45;&gt;9 -->
<g id="edge26" class="edge"><title>18&#45;&gt;9</title>
<path fill="none" stroke="black" d="M962.092,-256.641C952.811,-251.973 943.062,-247.529 933.602,-244 866.528,-218.981 843.471,-233.562 776.602,-208 770.595,-205.704 764.48,-203.007 758.46,-200.106"/>
<polygon fill="black" stroke="black" points="759.613,-196.769 749.106,-195.409 756.472,-203.024 759.613,-196.769"/>
</g>
<!-- 10 -->
<g id="node34" class="node"><title>10</title>
<ellipse fill="none" stroke="green" cx="1327.6" cy="-165" rx="67.704" ry="43"/>
<text text-anchor="middle" x="1327.6" y="-180" font-family="Times,serif" font-size="10.00">ID: 10</text>
<text text-anchor="middle" x="1327.6" y="-168" font-family="Times,serif" font-size="10.00">Number of features: 11</text>
<text text-anchor="middle" x="1327.6" y="-156" font-family="Times,serif" font-size="10.00">Cumulative Appearance: 15</text>
<text text-anchor="middle" x="1327.6" y="-144" font-family="Times,serif" font-size="10.00"> Appearance: 15</text>
</g>
<!-- 18&#45;&gt;10 -->
<g id="edge27" class="edge"><title>18&#45;&gt;10</title>
<path fill="none" stroke="black" d="M1063.1,-256.619C1072.39,-251.954 1082.14,-247.516 1091.6,-244 1159.52,-218.771 1182.82,-233.592 1250.6,-208 1256.92,-205.615 1263.36,-202.796 1269.69,-199.765"/>
<polygon fill="black" stroke="black" points="1271.46,-202.79 1278.85,-195.198 1268.34,-196.524 1271.46,-202.79"/>
</g>
<!-- 19&#45;&gt;8 -->
<g id="edge28" class="edge"><title>19&#45;&gt;8</title>
<path fill="none" stroke="black" d="M109.815,-252.892C128.706,-238.075 151.114,-220.5 170.818,-205.046"/>
<polygon fill="black" stroke="black" points="173.083,-207.718 178.792,-198.792 168.763,-202.21 173.083,-207.718"/>
</g>
<!-- 20&#45;&gt;3 -->
<g id="edge29" class="edge"><title>20&#45;&gt;3</title>
<path fill="none" stroke="black" d="M1744.36,-257.185C1735.24,-252.512 1725.74,-247.925 1716.6,-244 1664.28,-221.517 1603.16,-201.27 1556.65,-187.043"/>
<polygon fill="black" stroke="black" points="1557.54,-183.655 1546.96,-184.099 1555.51,-190.354 1557.54,-183.655"/>
</g>
<!-- 21&#45;&gt;10 -->
<g id="edge31" class="edge"><title>21&#45;&gt;10</title>
<path fill="none" stroke="black" d="M1591.11,-256.56C1582.17,-251.901 1572.76,-247.48 1563.6,-244 1495.47,-218.113 1471.74,-233.887 1403.6,-208 1397.59,-205.716 1391.47,-203.027 1385.45,-200.132"/>
<polygon fill="black" stroke="black" points="1386.6,-196.794 1376.09,-195.44 1383.46,-203.051 1386.6,-196.794"/>
</g>
<!-- 0 -->
<g id="node37" class="node"><title>0</title>
<ellipse fill="none" stroke="red" cx="1546.6" cy="-43" rx="64.678" ry="43"/>
<text text-anchor="middle" x="1546.6" y="-58" font-family="Times,serif" font-size="10.00">ID: 0</text>
<text text-anchor="middle" x="1546.6" y="-46" font-family="Times,serif" font-size="10.00">Number of features: 13</text>
<text text-anchor="middle" x="1546.6" y="-34" font-family="Times,serif" font-size="10.00">Cumulative Appearance: 2</text>
<text text-anchor="middle" x="1546.6" y="-22" font-family="Times,serif" font-size="10.00"> Appearance: 2</text>
</g>
<!-- 21&#45;&gt;0 -->
<g id="edge30" class="edge"><title>21&#45;&gt;0</title>
<path fill="none" stroke="black" d="M1623.83,-244.948C1607.84,-203.364 1583.1,-138.976 1565.95,-94.3389"/>
<polygon fill="black" stroke="black" points="1569.15,-92.9277 1562.3,-84.8488 1562.62,-95.4388 1569.15,-92.9277"/>
</g>
<!-- 22&#45;&gt;10 -->
<g id="edge32" class="edge"><title>22&#45;&gt;10</title>
<path fill="none" stroke="black" d="M1327.6,-243.692C1327.6,-235.537 1327.6,-226.903 1327.6,-218.47"/>
<polygon fill="black" stroke="black" points="1331.1,-218.33 1327.6,-208.33 1324.1,-218.33 1331.1,-218.33"/>
</g>
<!-- 1 -->
<g id="node35" class="node"><title>1</title>
<ellipse fill="none" stroke="green" cx="1170.6" cy="-43" rx="67.704" ry="43"/>
<text text-anchor="middle" x="1170.6" y="-58" font-family="Times,serif" font-size="10.00">ID: 1</text>
<text text-anchor="middle" x="1170.6" y="-46" font-family="Times,serif" font-size="10.00">Number of features: 12</text>
<text text-anchor="middle" x="1170.6" y="-34" font-family="Times,serif" font-size="10.00">Cumulative Appearance: 65</text>
<text text-anchor="middle" x="1170.6" y="-22" font-family="Times,serif" font-size="10.00"> Appearance: 65</text>
</g>
<!-- 3&#45;&gt;1 -->
<g id="edge2" class="edge"><title>3&#45;&gt;1</title>
<path fill="none" stroke="black" d="M1432.36,-135.175C1423.24,-130.503 1413.74,-125.919 1404.6,-122 1351.33,-99.1485 1288.96,-78.6539 1242.02,-64.4134"/>
<polygon fill="black" stroke="black" points="1242.83,-61.0022 1232.25,-61.4709 1240.81,-67.705 1242.83,-61.0022"/>
</g>
<!-- 3&#45;&gt;0 -->
<g id="edge1" class="edge"><title>3&#45;&gt;0</title>
<path fill="none" stroke="black" d="M1504.76,-123.708C1509.95,-113.807 1515.57,-103.102 1520.96,-92.8463"/>
<polygon fill="black" stroke="black" points="1524.06,-94.4626 1525.61,-83.9817 1517.86,-91.2088 1524.06,-94.4626"/>
</g>
<!-- 4&#45;&gt;1 -->
<g id="edge3" class="edge"><title>4&#45;&gt;1</title>
<path fill="none" stroke="black" d="M1170.6,-121.692C1170.6,-113.537 1170.6,-104.903 1170.6,-96.4702"/>
<polygon fill="black" stroke="black" points="1174.1,-96.3299 1170.6,-86.3299 1167.1,-96.33 1174.1,-96.3299"/>
</g>
<!-- 5&#45;&gt;1 -->
<g id="edge4" class="edge"><title>5&#45;&gt;1</title>
<path fill="none" stroke="black" d="M907.837,-135.166C916.956,-130.494 926.463,-125.913 935.602,-122 989.281,-99.0158 1052.16,-78.462 1099.36,-64.2306"/>
<polygon fill="black" stroke="black" points="1100.61,-67.5106 1109.19,-61.2912 1098.6,-60.8043 1100.61,-67.5106"/>
</g>
<!-- 2 -->
<g id="node36" class="node"><title>2</title>
<ellipse fill="none" stroke="green" cx="778.602" cy="-43" rx="67.704" ry="43"/>
<text text-anchor="middle" x="778.602" y="-58" font-family="Times,serif" font-size="10.00">ID: 2</text>
<text text-anchor="middle" x="778.602" y="-46" font-family="Times,serif" font-size="10.00">Number of features: 12</text>
<text text-anchor="middle" x="778.602" y="-34" font-family="Times,serif" font-size="10.00">Cumulative Appearance: 31</text>
<text text-anchor="middle" x="778.602" y="-22" font-family="Times,serif" font-size="10.00"> Appearance: 31</text>
</g>
<!-- 5&#45;&gt;2 -->
<g id="edge5" class="edge"><title>5&#45;&gt;2</title>
<path fill="none" stroke="black" d="M831.062,-124.708C824.19,-114.136 816.684,-102.587 809.552,-91.6161"/>
<polygon fill="black" stroke="black" points="812.318,-89.4479 803.933,-82.9709 806.448,-93.2629 812.318,-89.4479"/>
</g>
<!-- 6&#45;&gt;2 -->
<g id="edge6" class="edge"><title>6&#45;&gt;2</title>
<path fill="none" stroke="black" d="M962.496,-135.882C953.895,-131.178 945.019,-126.4 936.602,-122 905.412,-105.694 870.346,-88.2909 841.186,-74.0697"/>
<polygon fill="black" stroke="black" points="842.462,-70.7982 831.938,-69.5696 839.399,-77.0925 842.462,-70.7982"/>
</g>
<!-- 7&#45;&gt;2 -->
<g id="edge7" class="edge"><title>7&#45;&gt;2</title>
<path fill="none" stroke="black" d="M593.628,-137.282C603.572,-132.195 613.904,-126.924 623.602,-122 654.384,-106.372 688.668,-89.1051 717.149,-74.7986"/>
<polygon fill="black" stroke="black" points="718.814,-77.8788 726.18,-70.2635 715.673,-71.6232 718.814,-77.8788"/>
</g>
<!-- 9&#45;&gt;2 -->
<g id="edge8" class="edge"><title>9&#45;&gt;2</title>
<path fill="none" stroke="black" d="M725.926,-125.039C732.806,-114.455 740.336,-102.871 747.495,-91.8569"/>
<polygon fill="black" stroke="black" points="750.622,-93.4676 753.138,-83.1757 744.753,-89.6527 750.622,-93.4676"/>
</g>
</g>
</svg>
