<?xml version="1.0" encoding="UTF-8" standalone="no"?>
<!DOCTYPE svg PUBLIC "-//W3C//DTD SVG 1.1//EN"
 "http://www.w3.org/Graphics/SVG/1.1/DTD/svg11.dtd">
<!-- Generated by graphviz version 2.38.0 (20140413.2041)
 -->
<!-- Title: %3 Pages: 1 -->
<svg width="779pt" height="582pt"
 viewBox="0.00 0.00 779.23 582.00" xmlns="http://www.w3.org/2000/svg" xmlns:xlink="http://www.w3.org/1999/xlink">
<g id="graph0" class="graph" transform="scale(1 1) rotate(0) translate(4 578)">
<title>%3</title>
<polygon fill="white" stroke="none" points="-4,4 -4,-578 775.23,-578 775.23,4 -4,4"/>
<!-- 13 -->
<g id="node1" class="node"><title>13</title>
<ellipse fill="none" stroke="black" cx="308.615" cy="-531" rx="70.73" ry="43"/>
<text text-anchor="middle" x="308.615" y="-546" font-family="Times,serif" font-size="10.00">ID: 13</text>
<text text-anchor="middle" x="308.615" y="-534" font-family="Times,serif" font-size="10.00">Number of features: 8</text>
<text text-anchor="middle" x="308.615" y="-522" font-family="Times,serif" font-size="10.00">Cumulative Appearance: 647</text>
<text text-anchor="middle" x="308.615" y="-510" font-family="Times,serif" font-size="10.00"> Appearance: None</text>
</g>
<!-- 10 -->
<g id="node2" class="node"><title>10</title>
<ellipse fill="none" stroke="green" cx="229.615" cy="-409" rx="70.73" ry="43"/>
<text text-anchor="middle" x="229.615" y="-424" font-family="Times,serif" font-size="10.00">ID: 10</text>
<text text-anchor="middle" x="229.615" y="-412" font-family="Times,serif" font-size="10.00">Number of features: 9</text>
<text text-anchor="middle" x="229.615" y="-400" font-family="Times,serif" font-size="10.00">Cumulative Appearance: 540</text>
<text text-anchor="middle" x="229.615" y="-388" font-family="Times,serif" font-size="10.00"> Appearance: 54</text>
</g>
<!-- 13&#45;&gt;10 -->
<g id="edge19" class="edge"><title>13&#45;&gt;10</title>
<path fill="none" stroke="black" d="M282.747,-490.708C275.859,-480.244 268.34,-468.823 261.183,-457.952"/>
<polygon fill="black" stroke="black" points="263.963,-455.809 255.541,-449.381 258.116,-459.658 263.963,-455.809"/>
</g>
<!-- 11 -->
<g id="node3" class="node"><title>11</title>
<ellipse fill="none" stroke="black" cx="466.615" cy="-409" rx="70.73" ry="43"/>
<text text-anchor="middle" x="466.615" y="-424" font-family="Times,serif" font-size="10.00">ID: 11</text>
<text text-anchor="middle" x="466.615" y="-412" font-family="Times,serif" font-size="10.00">Number of features: 9</text>
<text text-anchor="middle" x="466.615" y="-400" font-family="Times,serif" font-size="10.00">Cumulative Appearance: 447</text>
<text text-anchor="middle" x="466.615" y="-388" font-family="Times,serif" font-size="10.00"> Appearance: None</text>
</g>
<!-- 13&#45;&gt;11 -->
<g id="edge20" class="edge"><title>13&#45;&gt;11</title>
<path fill="none" stroke="black" d="M352.207,-496.892C371.635,-482.136 394.666,-464.645 414.952,-449.237"/>
<polygon fill="black" stroke="black" points="417.318,-451.836 423.165,-443 413.084,-446.261 417.318,-451.836"/>
</g>
<!-- 6 -->
<g id="node4" class="node"><title>6</title>
<ellipse fill="none" stroke="green" cx="388.615" cy="-287" rx="70.73" ry="43"/>
<text text-anchor="middle" x="388.615" y="-302" font-family="Times,serif" font-size="10.00">ID: 6</text>
<text text-anchor="middle" x="388.615" y="-290" font-family="Times,serif" font-size="10.00">Number of features: 10</text>
<text text-anchor="middle" x="388.615" y="-278" font-family="Times,serif" font-size="10.00">Cumulative Appearance: 340</text>
<text text-anchor="middle" x="388.615" y="-266" font-family="Times,serif" font-size="10.00"> Appearance: 76</text>
</g>
<!-- 10&#45;&gt;6 -->
<g id="edge11" class="edge"><title>10&#45;&gt;6</title>
<path fill="none" stroke="black" d="M273.483,-374.892C293.121,-360.071 316.416,-342.49 336.897,-327.032"/>
<polygon fill="black" stroke="black" points="339.016,-329.818 344.89,-321 334.799,-324.231 339.016,-329.818"/>
</g>
<!-- 7 -->
<g id="node5" class="node"><title>7</title>
<ellipse fill="none" stroke="green" cx="229.615" cy="-287" rx="70.73" ry="43"/>
<text text-anchor="middle" x="229.615" y="-302" font-family="Times,serif" font-size="10.00">ID: 7</text>
<text text-anchor="middle" x="229.615" y="-290" font-family="Times,serif" font-size="10.00">Number of features: 10</text>
<text text-anchor="middle" x="229.615" y="-278" font-family="Times,serif" font-size="10.00">Cumulative Appearance: 296</text>
<text text-anchor="middle" x="229.615" y="-266" font-family="Times,serif" font-size="10.00"> Appearance: 69</text>
</g>
<!-- 10&#45;&gt;7 -->
<g id="edge12" class="edge"><title>10&#45;&gt;7</title>
<path fill="none" stroke="black" d="M229.615,-365.692C229.615,-357.537 229.615,-348.903 229.615,-340.47"/>
<polygon fill="black" stroke="black" points="233.115,-340.33 229.615,-330.33 226.115,-340.33 233.115,-340.33"/>
</g>
<!-- 12 -->
<g id="node8" class="node"><title>12</title>
<ellipse fill="none" stroke="black" cx="70.6149" cy="-287" rx="70.73" ry="43"/>
<text text-anchor="middle" x="70.6149" y="-302" font-family="Times,serif" font-size="10.00">ID: 12</text>
<text text-anchor="middle" x="70.6149" y="-290" font-family="Times,serif" font-size="10.00">Number of features: 10</text>
<text text-anchor="middle" x="70.6149" y="-278" font-family="Times,serif" font-size="10.00">Cumulative Appearance: 204</text>
<text text-anchor="middle" x="70.6149" y="-266" font-family="Times,serif" font-size="10.00"> Appearance: None</text>
</g>
<!-- 10&#45;&gt;12 -->
<g id="edge13" class="edge"><title>10&#45;&gt;12</title>
<path fill="none" stroke="black" d="M185.747,-374.892C166.109,-360.071 142.814,-342.49 122.332,-327.032"/>
<polygon fill="black" stroke="black" points="124.43,-324.231 114.34,-321 120.214,-329.818 124.43,-324.231"/>
</g>
<!-- 11&#45;&gt;6 -->
<g id="edge16" class="edge"><title>11&#45;&gt;6</title>
<path fill="none" stroke="black" d="M441.075,-368.708C434.274,-358.244 426.85,-346.823 419.784,-335.952"/>
<polygon fill="black" stroke="black" points="422.597,-333.858 414.212,-327.381 416.728,-337.673 422.597,-333.858"/>
</g>
<!-- 8 -->
<g id="node6" class="node"><title>8</title>
<ellipse fill="none" stroke="green" cx="700.615" cy="-287" rx="70.73" ry="43"/>
<text text-anchor="middle" x="700.615" y="-302" font-family="Times,serif" font-size="10.00">ID: 8</text>
<text text-anchor="middle" x="700.615" y="-290" font-family="Times,serif" font-size="10.00">Number of features: 10</text>
<text text-anchor="middle" x="700.615" y="-278" font-family="Times,serif" font-size="10.00">Cumulative Appearance: 110</text>
<text text-anchor="middle" x="700.615" y="-266" font-family="Times,serif" font-size="10.00"> Appearance: 58</text>
</g>
<!-- 11&#45;&gt;8 -->
<g id="edge17" class="edge"><title>11&#45;&gt;8</title>
<path fill="none" stroke="black" d="M520.565,-381.222C550.431,-366.305 588.17,-347.303 621.615,-330 627.228,-327.096 633.053,-324.054 638.88,-320.992"/>
<polygon fill="black" stroke="black" points="640.795,-323.939 648.008,-316.179 637.53,-317.747 640.795,-323.939"/>
</g>
<!-- 9 -->
<g id="node7" class="node"><title>9</title>
<ellipse fill="none" stroke="green" cx="544.615" cy="-287" rx="67.704" ry="43"/>
<text text-anchor="middle" x="544.615" y="-302" font-family="Times,serif" font-size="10.00">ID: 9</text>
<text text-anchor="middle" x="544.615" y="-290" font-family="Times,serif" font-size="10.00">Number of features: 10</text>
<text text-anchor="middle" x="544.615" y="-278" font-family="Times,serif" font-size="10.00">Cumulative Appearance: 49</text>
<text text-anchor="middle" x="544.615" y="-266" font-family="Times,serif" font-size="10.00"> Appearance: 49</text>
</g>
<!-- 11&#45;&gt;9 -->
<g id="edge18" class="edge"><title>11&#45;&gt;9</title>
<path fill="none" stroke="black" d="M492.155,-368.708C499.026,-358.136 506.533,-346.587 513.664,-335.616"/>
<polygon fill="black" stroke="black" points="516.768,-337.263 519.284,-326.971 510.899,-333.448 516.768,-337.263"/>
</g>
<!-- 2 -->
<g id="node9" class="node"><title>2</title>
<ellipse fill="none" stroke="green" cx="388.615" cy="-165" rx="70.73" ry="43"/>
<text text-anchor="middle" x="388.615" y="-180" font-family="Times,serif" font-size="10.00">ID: 2</text>
<text text-anchor="middle" x="388.615" y="-168" font-family="Times,serif" font-size="10.00">Number of features: 11</text>
<text text-anchor="middle" x="388.615" y="-156" font-family="Times,serif" font-size="10.00">Cumulative Appearance: 150</text>
<text text-anchor="middle" x="388.615" y="-144" font-family="Times,serif" font-size="10.00"> Appearance: 83</text>
</g>
<!-- 6&#45;&gt;2 -->
<g id="edge5" class="edge"><title>6&#45;&gt;2</title>
<path fill="none" stroke="black" d="M388.615,-243.692C388.615,-235.537 388.615,-226.903 388.615,-218.47"/>
<polygon fill="black" stroke="black" points="392.115,-218.33 388.615,-208.33 385.115,-218.33 392.115,-218.33"/>
</g>
<!-- 4 -->
<g id="node11" class="node"><title>4</title>
<ellipse fill="none" stroke="green" cx="229.615" cy="-165" rx="70.73" ry="43"/>
<text text-anchor="middle" x="229.615" y="-180" font-family="Times,serif" font-size="10.00">ID: 4</text>
<text text-anchor="middle" x="229.615" y="-168" font-family="Times,serif" font-size="10.00">Number of features: 11</text>
<text text-anchor="middle" x="229.615" y="-156" font-family="Times,serif" font-size="10.00">Cumulative Appearance: 127</text>
<text text-anchor="middle" x="229.615" y="-144" font-family="Times,serif" font-size="10.00"> Appearance: 62</text>
</g>
<!-- 6&#45;&gt;4 -->
<g id="edge6" class="edge"><title>6&#45;&gt;4</title>
<path fill="none" stroke="black" d="M344.747,-252.892C325.109,-238.071 301.814,-220.49 281.332,-205.032"/>
<polygon fill="black" stroke="black" points="283.43,-202.231 273.34,-199 279.214,-207.818 283.43,-202.231"/>
</g>
<!-- 5 -->
<g id="node12" class="node"><title>5</title>
<ellipse fill="none" stroke="green" cx="622.615" cy="-165" rx="67.704" ry="43"/>
<text text-anchor="middle" x="622.615" y="-180" font-family="Times,serif" font-size="10.00">ID: 5</text>
<text text-anchor="middle" x="622.615" y="-168" font-family="Times,serif" font-size="10.00">Number of features: 11</text>
<text text-anchor="middle" x="622.615" y="-156" font-family="Times,serif" font-size="10.00">Cumulative Appearance: 52</text>
<text text-anchor="middle" x="622.615" y="-144" font-family="Times,serif" font-size="10.00"> Appearance: 52</text>
</g>
<!-- 6&#45;&gt;5 -->
<g id="edge7" class="edge"><title>6&#45;&gt;5</title>
<path fill="none" stroke="black" d="M441.222,-257.821C450.017,-253.171 459.061,-248.425 467.615,-244 498.156,-228.199 532.278,-210.982 560.715,-196.752"/>
<polygon fill="black" stroke="black" points="562.356,-199.845 569.736,-192.243 559.226,-193.583 562.356,-199.845"/>
</g>
<!-- 7&#45;&gt;2 -->
<g id="edge8" class="edge"><title>7&#45;&gt;2</title>
<path fill="none" stroke="black" d="M273.483,-252.892C293.121,-238.071 316.416,-220.49 336.897,-205.032"/>
<polygon fill="black" stroke="black" points="339.016,-207.818 344.89,-199 334.799,-202.231 339.016,-207.818"/>
</g>
<!-- 3 -->
<g id="node10" class="node"><title>3</title>
<ellipse fill="none" stroke="green" cx="70.6149" cy="-165" rx="70.73" ry="43"/>
<text text-anchor="middle" x="70.6149" y="-180" font-family="Times,serif" font-size="10.00">ID: 3</text>
<text text-anchor="middle" x="70.6149" y="-168" font-family="Times,serif" font-size="10.00">Number of features: 11</text>
<text text-anchor="middle" x="70.6149" y="-156" font-family="Times,serif" font-size="10.00">Cumulative Appearance: 142</text>
<text text-anchor="middle" x="70.6149" y="-144" font-family="Times,serif" font-size="10.00"> Appearance: 77</text>
</g>
<!-- 7&#45;&gt;3 -->
<g id="edge9" class="edge"><title>7&#45;&gt;3</title>
<path fill="none" stroke="black" d="M185.747,-252.892C166.109,-238.071 142.814,-220.49 122.332,-205.032"/>
<polygon fill="black" stroke="black" points="124.43,-202.231 114.34,-199 120.214,-207.818 124.43,-202.231"/>
</g>
<!-- 8&#45;&gt;5 -->
<g id="edge10" class="edge"><title>8&#45;&gt;5</title>
<path fill="none" stroke="black" d="M675.075,-246.708C668.203,-236.136 660.697,-224.587 653.565,-213.616"/>
<polygon fill="black" stroke="black" points="656.33,-211.448 647.946,-204.971 650.461,-215.263 656.33,-211.448"/>
</g>
<!-- 12&#45;&gt;3 -->
<g id="edge14" class="edge"><title>12&#45;&gt;3</title>
<path fill="none" stroke="black" d="M70.6149,-243.692C70.6149,-235.537 70.6149,-226.903 70.6149,-218.47"/>
<polygon fill="black" stroke="black" points="74.115,-218.33 70.6149,-208.33 67.115,-218.33 74.115,-218.33"/>
</g>
<!-- 12&#45;&gt;4 -->
<g id="edge15" class="edge"><title>12&#45;&gt;4</title>
<path fill="none" stroke="black" d="M114.483,-252.892C134.121,-238.071 157.416,-220.49 177.897,-205.032"/>
<polygon fill="black" stroke="black" points="180.016,-207.818 185.89,-199 175.799,-202.231 180.016,-207.818"/>
</g>
<!-- 1 -->
<g id="node13" class="node"><title>1</title>
<ellipse fill="none" stroke="green" cx="229.615" cy="-43" rx="67.704" ry="43"/>
<text text-anchor="middle" x="229.615" y="-58" font-family="Times,serif" font-size="10.00">ID: 1</text>
<text text-anchor="middle" x="229.615" y="-46" font-family="Times,serif" font-size="10.00">Number of features: 12</text>
<text text-anchor="middle" x="229.615" y="-34" font-family="Times,serif" font-size="10.00">Cumulative Appearance: 65</text>
<text text-anchor="middle" x="229.615" y="-22" font-family="Times,serif" font-size="10.00"> Appearance: 65</text>
</g>
<!-- 2&#45;&gt;1 -->
<g id="edge2" class="edge"><title>2&#45;&gt;1</title>
<path fill="none" stroke="black" d="M344.747,-130.892C324.865,-115.887 301.235,-98.0532 280.572,-82.4582"/>
<polygon fill="black" stroke="black" points="282.606,-79.6084 272.516,-76.378 278.389,-85.1958 282.606,-79.6084"/>
</g>
<!-- 0 -->
<g id="node14" class="node"><title>0</title>
<ellipse fill="none" stroke="red" cx="388.615" cy="-43" rx="64.678" ry="43"/>
<text text-anchor="middle" x="388.615" y="-58" font-family="Times,serif" font-size="10.00">ID: 0</text>
<text text-anchor="middle" x="388.615" y="-46" font-family="Times,serif" font-size="10.00">Number of features: 13</text>
<text text-anchor="middle" x="388.615" y="-34" font-family="Times,serif" font-size="10.00">Cumulative Appearance: 2</text>
<text text-anchor="middle" x="388.615" y="-22" font-family="Times,serif" font-size="10.00"> Appearance: 2</text>
</g>
<!-- 2&#45;&gt;0 -->
<g id="edge1" class="edge"><title>2&#45;&gt;0</title>
<path fill="none" stroke="black" d="M388.615,-121.692C388.615,-113.537 388.615,-104.903 388.615,-96.4702"/>
<polygon fill="black" stroke="black" points="392.115,-96.3299 388.615,-86.3299 385.115,-96.33 392.115,-96.3299"/>
</g>
<!-- 3&#45;&gt;1 -->
<g id="edge3" class="edge"><title>3&#45;&gt;1</title>
<path fill="none" stroke="black" d="M114.483,-130.892C134.365,-115.887 157.994,-98.0532 178.658,-82.4582"/>
<polygon fill="black" stroke="black" points="180.841,-85.1958 186.714,-76.378 176.624,-79.6084 180.841,-85.1958"/>
</g>
<!-- 4&#45;&gt;1 -->
<g id="edge4" class="edge"><title>4&#45;&gt;1</title>
<path fill="none" stroke="black" d="M229.615,-121.692C229.615,-113.537 229.615,-104.903 229.615,-96.4702"/>
<polygon fill="black" stroke="black" points="233.115,-96.3299 229.615,-86.3299 226.115,-96.33 233.115,-96.3299"/>
</g>
</g>
</svg>
