<?xml version="1.0" encoding="UTF-8" standalone="no"?>
<!DOCTYPE svg PUBLIC "-//W3C//DTD SVG 1.1//EN"
 "http://www.w3.org/Graphics/SVG/1.1/DTD/svg11.dtd">
<!-- Generated by graphviz version 2.38.0 (20140413.2041)
 -->
<!-- Title: %3 Pages: 1 -->
<svg width="778pt" height="460pt"
 viewBox="0.00 0.00 778.22 460.00" xmlns="http://www.w3.org/2000/svg" xmlns:xlink="http://www.w3.org/1999/xlink">
<g id="graph0" class="graph" transform="scale(1 1) rotate(0) translate(4 456)">
<title>%3</title>
<polygon fill="white" stroke="none" points="-4,4 -4,-456 774.217,-456 774.217,4 -4,4"/>
<!-- 10 -->
<g id="node1" class="node"><title>10</title>
<ellipse fill="none" stroke="green" cx="307.615" cy="-409" rx="70.73" ry="43"/>
<text text-anchor="middle" x="307.615" y="-424" font-family="Times,serif" font-size="10.00">ID: 10</text>
<text text-anchor="middle" x="307.615" y="-412" font-family="Times,serif" font-size="10.00">Number of features: 9</text>
<text text-anchor="middle" x="307.615" y="-400" font-family="Times,serif" font-size="10.00">Cumulative Appearance: 540</text>
<text text-anchor="middle" x="307.615" y="-388" font-family="Times,serif" font-size="10.00"> Appearance: 54</text>
</g>
<!-- 6 -->
<g id="node2" class="node"><title>6</title>
<ellipse fill="none" stroke="green" cx="387.615" cy="-287" rx="70.73" ry="43"/>
<text text-anchor="middle" x="387.615" y="-302" font-family="Times,serif" font-size="10.00">ID: 6</text>
<text text-anchor="middle" x="387.615" y="-290" font-family="Times,serif" font-size="10.00">Number of features: 10</text>
<text text-anchor="middle" x="387.615" y="-278" font-family="Times,serif" font-size="10.00">Cumulative Appearance: 340</text>
<text text-anchor="middle" x="387.615" y="-266" font-family="Times,serif" font-size="10.00"> Appearance: 76</text>
</g>
<!-- 10&#45;&gt;6 -->
<g id="edge11" class="edge"><title>10&#45;&gt;6</title>
<path fill="none" stroke="black" d="M333.81,-368.708C340.786,-358.244 348.4,-346.823 355.647,-335.952"/>
<polygon fill="black" stroke="black" points="358.726,-337.643 361.361,-327.381 352.902,-333.76 358.726,-337.643"/>
</g>
<!-- 7 -->
<g id="node3" class="node"><title>7</title>
<ellipse fill="none" stroke="green" cx="228.615" cy="-287" rx="70.73" ry="43"/>
<text text-anchor="middle" x="228.615" y="-302" font-family="Times,serif" font-size="10.00">ID: 7</text>
<text text-anchor="middle" x="228.615" y="-290" font-family="Times,serif" font-size="10.00">Number of features: 10</text>
<text text-anchor="middle" x="228.615" y="-278" font-family="Times,serif" font-size="10.00">Cumulative Appearance: 296</text>
<text text-anchor="middle" x="228.615" y="-266" font-family="Times,serif" font-size="10.00"> Appearance: 69</text>
</g>
<!-- 10&#45;&gt;7 -->
<g id="edge12" class="edge"><title>10&#45;&gt;7</title>
<path fill="none" stroke="black" d="M281.747,-368.708C274.859,-358.244 267.34,-346.823 260.183,-335.952"/>
<polygon fill="black" stroke="black" points="262.963,-333.809 254.541,-327.381 257.116,-337.658 262.963,-333.809"/>
</g>
<!-- 2 -->
<g id="node6" class="node"><title>2</title>
<ellipse fill="none" stroke="green" cx="229.615" cy="-165" rx="70.73" ry="43"/>
<text text-anchor="middle" x="229.615" y="-180" font-family="Times,serif" font-size="10.00">ID: 2</text>
<text text-anchor="middle" x="229.615" y="-168" font-family="Times,serif" font-size="10.00">Number of features: 11</text>
<text text-anchor="middle" x="229.615" y="-156" font-family="Times,serif" font-size="10.00">Cumulative Appearance: 150</text>
<text text-anchor="middle" x="229.615" y="-144" font-family="Times,serif" font-size="10.00"> Appearance: 83</text>
</g>
<!-- 6&#45;&gt;2 -->
<g id="edge5" class="edge"><title>6&#45;&gt;2</title>
<path fill="none" stroke="black" d="M344.022,-252.892C324.594,-238.136 301.564,-220.645 281.277,-205.237"/>
<polygon fill="black" stroke="black" points="283.146,-202.261 273.065,-199 278.912,-207.836 283.146,-202.261"/>
</g>
<!-- 4 -->
<g id="node8" class="node"><title>4</title>
<ellipse fill="none" stroke="green" cx="388.615" cy="-165" rx="70.73" ry="43"/>
<text text-anchor="middle" x="388.615" y="-180" font-family="Times,serif" font-size="10.00">ID: 4</text>
<text text-anchor="middle" x="388.615" y="-168" font-family="Times,serif" font-size="10.00">Number of features: 11</text>
<text text-anchor="middle" x="388.615" y="-156" font-family="Times,serif" font-size="10.00">Cumulative Appearance: 127</text>
<text text-anchor="middle" x="388.615" y="-144" font-family="Times,serif" font-size="10.00"> Appearance: 62</text>
</g>
<!-- 6&#45;&gt;4 -->
<g id="edge6" class="edge"><title>6&#45;&gt;4</title>
<path fill="none" stroke="black" d="M387.967,-243.692C388.035,-235.537 388.107,-226.903 388.178,-218.47"/>
<polygon fill="black" stroke="black" points="391.679,-218.359 388.262,-208.33 384.679,-218.3 391.679,-218.359"/>
</g>
<!-- 5 -->
<g id="node9" class="node"><title>5</title>
<ellipse fill="none" stroke="green" cx="545.615" cy="-165" rx="67.704" ry="43"/>
<text text-anchor="middle" x="545.615" y="-180" font-family="Times,serif" font-size="10.00">ID: 5</text>
<text text-anchor="middle" x="545.615" y="-168" font-family="Times,serif" font-size="10.00">Number of features: 11</text>
<text text-anchor="middle" x="545.615" y="-156" font-family="Times,serif" font-size="10.00">Cumulative Appearance: 52</text>
<text text-anchor="middle" x="545.615" y="-144" font-family="Times,serif" font-size="10.00"> Appearance: 52</text>
</g>
<!-- 6&#45;&gt;5 -->
<g id="edge7" class="edge"><title>6&#45;&gt;5</title>
<path fill="none" stroke="black" d="M431.207,-252.892C450.964,-237.887 474.445,-220.053 494.978,-204.458"/>
<polygon fill="black" stroke="black" points="497.137,-207.214 502.984,-198.378 492.903,-201.639 497.137,-207.214"/>
</g>
<!-- 7&#45;&gt;2 -->
<g id="edge8" class="edge"><title>7&#45;&gt;2</title>
<path fill="none" stroke="black" d="M228.967,-243.692C229.035,-235.537 229.107,-226.903 229.178,-218.47"/>
<polygon fill="black" stroke="black" points="232.679,-218.359 229.262,-208.33 225.679,-218.3 232.679,-218.359"/>
</g>
<!-- 3 -->
<g id="node7" class="node"><title>3</title>
<ellipse fill="none" stroke="green" cx="70.6149" cy="-165" rx="70.73" ry="43"/>
<text text-anchor="middle" x="70.6149" y="-180" font-family="Times,serif" font-size="10.00">ID: 3</text>
<text text-anchor="middle" x="70.6149" y="-168" font-family="Times,serif" font-size="10.00">Number of features: 11</text>
<text text-anchor="middle" x="70.6149" y="-156" font-family="Times,serif" font-size="10.00">Cumulative Appearance: 142</text>
<text text-anchor="middle" x="70.6149" y="-144" font-family="Times,serif" font-size="10.00"> Appearance: 77</text>
</g>
<!-- 7&#45;&gt;3 -->
<g id="edge9" class="edge"><title>7&#45;&gt;3</title>
<path fill="none" stroke="black" d="M185.022,-252.892C165.594,-238.136 142.564,-220.645 122.277,-205.237"/>
<polygon fill="black" stroke="black" points="124.146,-202.261 114.065,-199 119.912,-207.836 124.146,-202.261"/>
</g>
<!-- 8 -->
<g id="node4" class="node"><title>8</title>
<ellipse fill="none" stroke="green" cx="546.615" cy="-287" rx="70.73" ry="43"/>
<text text-anchor="middle" x="546.615" y="-302" font-family="Times,serif" font-size="10.00">ID: 8</text>
<text text-anchor="middle" x="546.615" y="-290" font-family="Times,serif" font-size="10.00">Number of features: 10</text>
<text text-anchor="middle" x="546.615" y="-278" font-family="Times,serif" font-size="10.00">Cumulative Appearance: 110</text>
<text text-anchor="middle" x="546.615" y="-266" font-family="Times,serif" font-size="10.00"> Appearance: 58</text>
</g>
<!-- 8&#45;&gt;5 -->
<g id="edge10" class="edge"><title>8&#45;&gt;5</title>
<path fill="none" stroke="black" d="M546.262,-243.692C546.194,-235.537 546.122,-226.903 546.052,-218.47"/>
<polygon fill="black" stroke="black" points="549.551,-218.3 545.968,-208.33 542.551,-218.359 549.551,-218.3"/>
</g>
<!-- 9 -->
<g id="node5" class="node"><title>9</title>
<ellipse fill="none" stroke="green" cx="702.615" cy="-287" rx="67.704" ry="43"/>
<text text-anchor="middle" x="702.615" y="-302" font-family="Times,serif" font-size="10.00">ID: 9</text>
<text text-anchor="middle" x="702.615" y="-290" font-family="Times,serif" font-size="10.00">Number of features: 10</text>
<text text-anchor="middle" x="702.615" y="-278" font-family="Times,serif" font-size="10.00">Cumulative Appearance: 49</text>
<text text-anchor="middle" x="702.615" y="-266" font-family="Times,serif" font-size="10.00"> Appearance: 49</text>
</g>
<!-- 1 -->
<g id="node10" class="node"><title>1</title>
<ellipse fill="none" stroke="green" cx="304.615" cy="-43" rx="67.704" ry="43"/>
<text text-anchor="middle" x="304.615" y="-58" font-family="Times,serif" font-size="10.00">ID: 1</text>
<text text-anchor="middle" x="304.615" y="-46" font-family="Times,serif" font-size="10.00">Number of features: 12</text>
<text text-anchor="middle" x="304.615" y="-34" font-family="Times,serif" font-size="10.00">Cumulative Appearance: 65</text>
<text text-anchor="middle" x="304.615" y="-22" font-family="Times,serif" font-size="10.00"> Appearance: 65</text>
</g>
<!-- 2&#45;&gt;1 -->
<g id="edge2" class="edge"><title>2&#45;&gt;1</title>
<path fill="none" stroke="black" d="M254.381,-124.375C260.912,-113.925 268.028,-102.538 274.796,-91.7103"/>
<polygon fill="black" stroke="black" points="277.799,-93.5094 280.131,-83.1744 271.863,-89.7994 277.799,-93.5094"/>
</g>
<!-- 0 -->
<g id="node11" class="node"><title>0</title>
<ellipse fill="none" stroke="red" cx="154.615" cy="-43" rx="64.678" ry="43"/>
<text text-anchor="middle" x="154.615" y="-58" font-family="Times,serif" font-size="10.00">ID: 0</text>
<text text-anchor="middle" x="154.615" y="-46" font-family="Times,serif" font-size="10.00">Number of features: 13</text>
<text text-anchor="middle" x="154.615" y="-34" font-family="Times,serif" font-size="10.00">Cumulative Appearance: 2</text>
<text text-anchor="middle" x="154.615" y="-22" font-family="Times,serif" font-size="10.00"> Appearance: 2</text>
</g>
<!-- 2&#45;&gt;0 -->
<g id="edge1" class="edge"><title>2&#45;&gt;0</title>
<path fill="none" stroke="black" d="M204.849,-124.375C198.318,-113.925 191.201,-102.538 184.434,-91.7103"/>
<polygon fill="black" stroke="black" points="187.367,-89.7994 179.099,-83.1744 181.431,-93.5094 187.367,-89.7994"/>
</g>
<!-- 3&#45;&gt;1 -->
<g id="edge3" class="edge"><title>3&#45;&gt;1</title>
<path fill="none" stroke="black" d="M122.651,-135.758C131.597,-131.069 140.838,-126.328 149.615,-122 184.221,-104.936 194.148,-103.344 228.615,-86 234.182,-83.1983 239.934,-80.2062 245.664,-77.1581"/>
<polygon fill="black" stroke="black" points="247.473,-80.1596 254.624,-72.3416 244.158,-73.9941 247.473,-80.1596"/>
</g>
<!-- 4&#45;&gt;1 -->
<g id="edge4" class="edge"><title>4&#45;&gt;1</title>
<path fill="none" stroke="black" d="M361.342,-125.039C353.784,-114.242 345.497,-102.403 337.648,-91.1899"/>
<polygon fill="black" stroke="black" points="340.352,-88.9503 331.75,-82.7651 334.618,-92.9646 340.352,-88.9503"/>
</g>
</g>
</svg>
