<?xml version="1.0" encoding="UTF-8" standalone="no"?>
<!DOCTYPE svg PUBLIC "-//W3C//DTD SVG 1.1//EN"
 "http://www.w3.org/Graphics/SVG/1.1/DTD/svg11.dtd">
<!-- Generated by graphviz version 2.38.0 (20140413.2041)
 -->
<!-- Title: %3 Pages: 1 -->
<svg width="531pt" height="704pt"
 viewBox="0.00 0.00 531.14 704.00" xmlns="http://www.w3.org/2000/svg" xmlns:xlink="http://www.w3.org/1999/xlink">
<g id="graph0" class="graph" transform="scale(1 1) rotate(0) translate(4 700)">
<title>%3</title>
<polygon fill="white" stroke="none" points="-4,4 -4,-700 527.136,-700 527.136,4 -4,4"/>
<!-- 6 -->
<g id="node1" class="node"><title>6</title>
<ellipse fill="none" stroke="black" cx="196.807" cy="-653" rx="74.6135" ry="43"/>
<text text-anchor="middle" x="196.807" y="-674" font-family="Times,serif" font-size="10.00">Frames: None</text>
<text text-anchor="middle" x="196.807" y="-662" font-family="Times,serif" font-size="10.00">ID: 6</text>
<text text-anchor="middle" x="196.807" y="-650" font-family="Times,serif" font-size="10.00">Number of features: 1</text>
<text text-anchor="middle" x="196.807" y="-638" font-family="Times,serif" font-size="10.00">Cumulative Appearance: 6</text>
<text text-anchor="middle" x="196.807" y="-626" font-family="Times,serif" font-size="10.00"> Appearance: None</text>
</g>
<!-- 3 -->
<g id="node3" class="node"><title>3</title>
<ellipse fill="none" stroke="green" cx="144.807" cy="-531" rx="74.6135" ry="43"/>
<text text-anchor="middle" x="144.807" y="-552" font-family="Times,serif" font-size="10.00">Frames: [0]</text>
<text text-anchor="middle" x="144.807" y="-540" font-family="Times,serif" font-size="10.00">ID: 3</text>
<text text-anchor="middle" x="144.807" y="-528" font-family="Times,serif" font-size="10.00">Number of features: 6</text>
<text text-anchor="middle" x="144.807" y="-516" font-family="Times,serif" font-size="10.00">Cumulative Appearance: 1</text>
<text text-anchor="middle" x="144.807" y="-504" font-family="Times,serif" font-size="10.00"> Appearance: 1</text>
</g>
<!-- 6&#45;&gt;3 -->
<g id="edge5" class="edge"><title>6&#45;&gt;3</title>
<path fill="none" stroke="black" d="M179.056,-611.038C175.085,-601.872 170.826,-592.045 166.708,-582.542"/>
<polygon fill="black" stroke="black" points="169.841,-580.968 162.653,-573.184 163.418,-583.752 169.841,-580.968"/>
</g>
<!-- 7 -->
<g id="node5" class="node"><title>7</title>
<ellipse fill="none" stroke="black" cx="247.807" cy="-409" rx="74.6135" ry="43"/>
<text text-anchor="middle" x="247.807" y="-430" font-family="Times,serif" font-size="10.00">Frames: None</text>
<text text-anchor="middle" x="247.807" y="-418" font-family="Times,serif" font-size="10.00">ID: 7</text>
<text text-anchor="middle" x="247.807" y="-406" font-family="Times,serif" font-size="10.00">Number of features: 12</text>
<text text-anchor="middle" x="247.807" y="-394" font-family="Times,serif" font-size="10.00">Cumulative Appearance: 5</text>
<text text-anchor="middle" x="247.807" y="-382" font-family="Times,serif" font-size="10.00"> Appearance: None</text>
</g>
<!-- 6&#45;&gt;7 -->
<g id="edge6" class="edge"><title>6&#45;&gt;7</title>
<path fill="none" stroke="black" d="M216.075,-611.024C220.913,-599.289 225.627,-586.331 228.807,-574 238.266,-537.31 243.023,-494.781 245.411,-462.228"/>
<polygon fill="black" stroke="black" points="248.918,-462.244 246.106,-452.029 241.934,-461.768 248.918,-462.244"/>
</g>
<!-- Number of features: 1 -->
<g id="node2" class="node"><title>Number of features: 1</title>
<ellipse fill="none" stroke="black" cx="473.807" cy="-653" rx="46.8568" ry="18"/>
<text text-anchor="middle" x="473.807" y="-650" font-family="Times,serif" font-size="10.00">Number of features: 1</text>
</g>
<!-- Number of features: 6 -->
<g id="node4" class="node"><title>Number of features: 6</title>
<ellipse fill="none" stroke="black" cx="473.807" cy="-531" rx="46.8568" ry="18"/>
<text text-anchor="middle" x="473.807" y="-528" font-family="Times,serif" font-size="10.00">Number of features: 6</text>
</g>
<!-- Number of features: 1&#45;&gt;Number of features: 6 -->
<g id="edge12" class="edge"><title>Number of features: 1&#45;&gt;Number of features: 6</title>
<path fill="none" stroke="black" stroke-width="5" d="M473.807,-634.807C473.807,-615.114 473.807,-582.583 473.807,-559.39"/>
<polygon fill="black" stroke="black" stroke-width="5" points="478.182,-559.161 473.807,-549.161 469.432,-559.161 478.182,-559.161"/>
</g>
<!-- Number of features: 12 -->
<g id="node6" class="node"><title>Number of features: 12</title>
<ellipse fill="none" stroke="black" cx="473.807" cy="-409" rx="49.16" ry="18"/>
<text text-anchor="middle" x="473.807" y="-406" font-family="Times,serif" font-size="10.00">Number of features: 12</text>
</g>
<!-- Number of features: 6&#45;&gt;Number of features: 12 -->
<g id="edge13" class="edge"><title>Number of features: 6&#45;&gt;Number of features: 12</title>
<path fill="none" stroke="black" stroke-width="6" d="M473.807,-512.807C473.807,-493.114 473.807,-460.583 473.807,-437.39"/>
<polygon fill="black" stroke="black" stroke-width="6" points="479.057,-437.161 473.807,-427.161 468.557,-437.161 479.057,-437.161"/>
</g>
<!-- 4 -->
<g id="node7" class="node"><title>4</title>
<ellipse fill="none" stroke="black" cx="163.807" cy="-287" rx="74.6135" ry="43"/>
<text text-anchor="middle" x="163.807" y="-308" font-family="Times,serif" font-size="10.00">Frames: None</text>
<text text-anchor="middle" x="163.807" y="-296" font-family="Times,serif" font-size="10.00">ID: 4</text>
<text text-anchor="middle" x="163.807" y="-284" font-family="Times,serif" font-size="10.00">Number of features: 13</text>
<text text-anchor="middle" x="163.807" y="-272" font-family="Times,serif" font-size="10.00">Cumulative Appearance: 4</text>
<text text-anchor="middle" x="163.807" y="-260" font-family="Times,serif" font-size="10.00"> Appearance: None</text>
</g>
<!-- 7&#45;&gt;4 -->
<g id="edge7" class="edge"><title>7&#45;&gt;4</title>
<path fill="none" stroke="black" d="M220.302,-368.708C212.905,-358.14 204.824,-346.597 197.147,-335.629"/>
<polygon fill="black" stroke="black" points="199.975,-333.566 191.373,-327.381 194.24,-337.58 199.975,-333.566"/>
</g>
<!-- 5 -->
<g id="node8" class="node"><title>5</title>
<ellipse fill="none" stroke="black" cx="331.807" cy="-287" rx="74.6135" ry="43"/>
<text text-anchor="middle" x="331.807" y="-308" font-family="Times,serif" font-size="10.00">Frames: None</text>
<text text-anchor="middle" x="331.807" y="-296" font-family="Times,serif" font-size="10.00">ID: 5</text>
<text text-anchor="middle" x="331.807" y="-284" font-family="Times,serif" font-size="10.00">Number of features: 13</text>
<text text-anchor="middle" x="331.807" y="-272" font-family="Times,serif" font-size="10.00">Cumulative Appearance: 4</text>
<text text-anchor="middle" x="331.807" y="-260" font-family="Times,serif" font-size="10.00"> Appearance: None</text>
</g>
<!-- 7&#45;&gt;5 -->
<g id="edge8" class="edge"><title>7&#45;&gt;5</title>
<path fill="none" stroke="black" d="M275.311,-368.708C282.708,-358.14 290.789,-346.597 298.466,-335.629"/>
<polygon fill="black" stroke="black" points="301.373,-337.58 304.24,-327.381 295.638,-333.566 301.373,-337.58"/>
</g>
<!-- Number of features: 13 -->
<g id="node9" class="node"><title>Number of features: 13</title>
<ellipse fill="none" stroke="black" cx="473.807" cy="-287" rx="49.16" ry="18"/>
<text text-anchor="middle" x="473.807" y="-284" font-family="Times,serif" font-size="10.00">Number of features: 13</text>
</g>
<!-- Number of features: 12&#45;&gt;Number of features: 13 -->
<g id="edge9" class="edge"><title>Number of features: 12&#45;&gt;Number of features: 13</title>
<path fill="none" stroke="black" d="M473.807,-390.807C473.807,-371.114 473.807,-338.583 473.807,-315.39"/>
<polygon fill="black" stroke="black" points="477.307,-315.161 473.807,-305.161 470.307,-315.161 477.307,-315.161"/>
</g>
<!-- 1 -->
<g id="node10" class="node"><title>1</title>
<ellipse fill="none" stroke="green" cx="74.8065" cy="-165" rx="74.6135" ry="43"/>
<text text-anchor="middle" x="74.8065" y="-186" font-family="Times,serif" font-size="10.00">Frames: [2]</text>
<text text-anchor="middle" x="74.8065" y="-174" font-family="Times,serif" font-size="10.00">ID: 1</text>
<text text-anchor="middle" x="74.8065" y="-162" font-family="Times,serif" font-size="10.00">Number of features: 14</text>
<text text-anchor="middle" x="74.8065" y="-150" font-family="Times,serif" font-size="10.00">Cumulative Appearance: 1</text>
<text text-anchor="middle" x="74.8065" y="-138" font-family="Times,serif" font-size="10.00"> Appearance: 1</text>
</g>
<!-- 4&#45;&gt;1 -->
<g id="edge2" class="edge"><title>4&#45;&gt;1</title>
<path fill="none" stroke="black" d="M134.911,-247.039C126.824,-236.136 117.95,-224.17 109.561,-212.86"/>
<polygon fill="black" stroke="black" points="112.326,-210.712 103.557,-204.765 106.703,-214.882 112.326,-210.712"/>
</g>
<!-- 0 -->
<g id="node13" class="node"><title>0</title>
<ellipse fill="none" stroke="green" cx="247.807" cy="-43" rx="74.6135" ry="43"/>
<text text-anchor="middle" x="247.807" y="-64" font-family="Times,serif" font-size="10.00">Frames: [1, 3, 4]</text>
<text text-anchor="middle" x="247.807" y="-52" font-family="Times,serif" font-size="10.00">ID: 0</text>
<text text-anchor="middle" x="247.807" y="-40" font-family="Times,serif" font-size="10.00">Number of features: 15</text>
<text text-anchor="middle" x="247.807" y="-28" font-family="Times,serif" font-size="10.00">Cumulative Appearance: 3</text>
<text text-anchor="middle" x="247.807" y="-16" font-family="Times,serif" font-size="10.00"> Appearance: 3</text>
</g>
<!-- 4&#45;&gt;0 -->
<g id="edge1" class="edge"><title>4&#45;&gt;0</title>
<path fill="none" stroke="black" d="M167.814,-243.955C172.086,-210.045 180.567,-161.641 196.807,-122 201.033,-111.684 206.679,-101.27 212.674,-91.5582"/>
<polygon fill="black" stroke="black" points="215.8,-93.1681 218.248,-82.86 209.906,-89.3916 215.8,-93.1681"/>
</g>
<!-- 2 -->
<g id="node11" class="node"><title>2</title>
<ellipse fill="none" stroke="green" cx="280.807" cy="-165" rx="74.6135" ry="43"/>
<text text-anchor="middle" x="280.807" y="-186" font-family="Times,serif" font-size="10.00">Frames: [5]</text>
<text text-anchor="middle" x="280.807" y="-174" font-family="Times,serif" font-size="10.00">ID: 2</text>
<text text-anchor="middle" x="280.807" y="-162" font-family="Times,serif" font-size="10.00">Number of features: 14</text>
<text text-anchor="middle" x="280.807" y="-150" font-family="Times,serif" font-size="10.00">Cumulative Appearance: 1</text>
<text text-anchor="middle" x="280.807" y="-138" font-family="Times,serif" font-size="10.00"> Appearance: 1</text>
</g>
<!-- 5&#45;&gt;2 -->
<g id="edge4" class="edge"><title>5&#45;&gt;2</title>
<path fill="none" stroke="black" d="M314.398,-245.038C310.502,-235.872 306.326,-226.045 302.287,-216.542"/>
<polygon fill="black" stroke="black" points="305.442,-215.019 298.31,-207.184 299,-217.757 305.442,-215.019"/>
</g>
<!-- 5&#45;&gt;0 -->
<g id="edge3" class="edge"><title>5&#45;&gt;0</title>
<path fill="none" stroke="black" d="M354.192,-245.721C370.199,-211.108 385.568,-160.794 364.807,-122 354.068,-101.935 335.635,-86.1399 316.536,-74.1659"/>
<polygon fill="black" stroke="black" points="318.123,-71.0373 307.74,-68.9316 314.544,-77.0529 318.123,-71.0373"/>
</g>
<!-- Number of features: 14 -->
<g id="node12" class="node"><title>Number of features: 14</title>
<ellipse fill="none" stroke="black" cx="473.807" cy="-165" rx="49.16" ry="18"/>
<text text-anchor="middle" x="473.807" y="-162" font-family="Times,serif" font-size="10.00">Number of features: 14</text>
</g>
<!-- Number of features: 13&#45;&gt;Number of features: 14 -->
<g id="edge10" class="edge"><title>Number of features: 13&#45;&gt;Number of features: 14</title>
<path fill="none" stroke="black" d="M473.807,-268.807C473.807,-249.114 473.807,-216.583 473.807,-193.39"/>
<polygon fill="black" stroke="black" points="477.307,-193.161 473.807,-183.161 470.307,-193.161 477.307,-193.161"/>
</g>
<!-- Number of features: 15 -->
<g id="node14" class="node"><title>Number of features: 15</title>
<ellipse fill="none" stroke="black" cx="473.807" cy="-43" rx="49.16" ry="18"/>
<text text-anchor="middle" x="473.807" y="-40" font-family="Times,serif" font-size="10.00">Number of features: 15</text>
</g>
<!-- Number of features: 14&#45;&gt;Number of features: 15 -->
<g id="edge11" class="edge"><title>Number of features: 14&#45;&gt;Number of features: 15</title>
<path fill="none" stroke="black" d="M473.807,-146.807C473.807,-127.114 473.807,-94.583 473.807,-71.3898"/>
<polygon fill="black" stroke="black" points="477.307,-71.1611 473.807,-61.1612 470.307,-71.1612 477.307,-71.1611"/>
</g>
</g>
</svg>
